<svg width="30" height="54" viewBox="0 0 30 54" fill="none" xmlns="http://www.w3.org/2000/svg">
<path fill-rule="evenodd" clip-rule="evenodd" d="M26.185 47.987C26.185 50.752 21.3253 53.0143 15.2925 53.0143C9.25976 53.0143 4.40004 50.752 4.40004 47.987C4.40004 45.222 9.25976 42.9597 15.2925 42.9597C21.3253 43.0435 26.185 45.222 26.185 47.987Z" fill="#E3B279"/>
<path fill-rule="evenodd" clip-rule="evenodd" d="M13.2815 49.8302V51.506H13.3653C13.4491 51.506 13.5329 51.506 13.6167 51.506H13.7004C13.868 51.506 13.9518 51.506 14.1194 51.506H14.2032C14.3708 51.506 14.4546 51.506 14.6221 51.506C14.7059 51.506 14.7897 51.506 14.8735 51.506H14.9573C15.1248 51.506 15.2086 51.506 15.3762 51.506C15.46 51.506 15.5438 51.506 15.6276 51.506H15.7114H15.7952H16.0466H16.1303H16.2979C16.3817 51.506 16.4655 51.506 16.5493 51.506H16.633H16.7169C16.8006 51.506 16.8844 51.506 16.9682 51.506H17.052H17.1358H17.3034H17.3872H17.4709H17.5547H17.7223H17.8061H17.8899H18.0574H18.1413H18.225H18.3926H18.4764H18.5602H18.644H18.8116H18.8953H19.0629H19.1467H19.3143H19.3981H19.4819H19.5656H19.6494H19.7332L19.9008 51.4222H19.9846H20.0684H20.1522L20.3197 51.3384H20.4035C20.4873 51.3384 20.6549 51.2546 20.7387 51.1708L20.9063 51.087L21.0739 51.0032H21.1576C21.2414 51.0032 21.2414 50.9195 21.3252 50.9195C21.409 50.9195 21.409 50.8356 21.4928 50.8356C21.5766 50.8356 21.5765 50.7519 21.6603 50.7519C21.7441 50.6681 21.9117 50.6681 21.9955 50.5843C22.0793 50.5843 22.0793 50.5005 22.1631 50.5005C24.0064 49.4113 24.9281 48.0706 24.9281 46.6462V44.9705C24.9281 46.3949 24.0064 47.7355 22.1631 48.8248C22.0793 48.8248 22.0793 48.9085 21.9955 48.9085C21.9117 48.9923 21.7441 48.9923 21.6603 49.0761C21.5765 49.0761 21.5766 49.1599 21.4928 49.1599C21.409 49.1599 21.409 49.2437 21.3252 49.2437C21.2414 49.2437 21.2414 49.3275 21.1576 49.3275H21.0739L20.9063 49.4113L20.7387 49.495L20.5711 49.5788L20.4035 49.6626H20.3197L20.1522 49.7464H20.0684H19.9846H19.9008L19.7332 49.8302H19.6494H19.5656H19.4819H19.3981H19.3143H19.1467H19.0629H18.9792H18.8953H18.7277H18.644H18.5602H18.3926H18.3088H18.225H18.1413H17.9737H17.8899H17.8061H17.7223H17.5547H17.4709C17.3871 49.8302 17.3034 49.8302 17.2196 49.8302H17.1358H17.052C16.9682 49.8302 16.8844 49.8302 16.8006 49.8302C16.633 49.8302 16.5493 49.8302 16.3817 49.8302C15.0411 49.914 14.2032 49.914 13.2815 49.8302C12.5274 49.7464 11.8571 49.5789 11.1868 49.4113C11.103 49.4113 11.1031 49.4112 11.0193 49.3275H10.8517C10.7679 49.3275 10.6841 49.2437 10.6841 49.2437L10.5165 49.1599H10.4327H10.3489H10.2651H10.1814L10.0976 49.0761H10.0138L9.84621 48.9923H9.76244L9.59485 48.9085C9.51106 48.9085 9.51105 48.8248 9.42726 48.8248C9.34348 48.8248 9.34347 48.7409 9.25968 48.7409C9.17589 48.7409 9.17588 48.6572 9.09209 48.6572C9.0083 48.6572 9.00834 48.5734 8.92455 48.5734C8.84077 48.5734 8.84076 48.4896 8.75697 48.4896H8.67315H8.58938C8.17044 48.2382 7.8353 47.9869 7.50014 47.7355L7.41632 47.6517L7.33256 47.5679C7.24877 47.4841 7.16499 47.4004 7.0812 47.3166C6.91363 47.149 6.74605 46.8976 6.66226 46.73V46.6462C6.66226 46.5624 6.57844 46.5625 6.57844 46.4787C6.49465 46.3949 6.49469 46.3111 6.41091 46.1435C6.32712 45.9759 6.24332 45.7246 6.24332 45.4732V45.3894C6.24332 45.3056 6.24332 45.1381 6.24332 45.0543V46.6462V46.73V46.8138C6.24332 47.5679 6.57848 48.4058 7.24879 49.1599V47.4841V49.1599C7.58394 49.5788 8.00288 49.914 8.50561 50.2492H8.58938C8.67317 50.2492 8.67318 50.3329 8.75697 50.3329H8.84074H8.92455H9.00832C9.09211 50.3329 9.09212 50.4167 9.17591 50.4167C9.2597 50.4167 9.25971 50.5005 9.3435 50.5005C9.42728 50.5005 9.42724 50.5843 9.51103 50.5843C9.59482 50.5843 9.59483 50.6681 9.67862 50.6681C9.76241 50.6681 9.76242 50.7519 9.84621 50.7519C9.92999 50.7519 9.93 50.8356 10.0138 50.8356L10.1814 50.9195H10.2651L10.4327 51.0032H10.5165L10.6841 51.087H10.7679L10.9354 51.1708H11.0193H11.103H11.2706H11.3544H11.4382H11.522H11.6057H11.6896H11.8571H11.9409H12.1085H12.1923H12.2761H12.3599H12.4436H12.5274H12.695H12.7788H12.8626H12.9464H13.0302H13.114H13.1977H13.2815H13.3653H13.5329H13.6167L13.2815 49.8302Z" fill="#E3EBF0"/>
<path fill-rule="evenodd" clip-rule="evenodd" d="M8.67315 40.6135C4.98646 42.7082 4.98648 46.1435 8.58938 48.322C12.2761 50.4167 18.1412 50.4167 21.8279 48.322C25.5146 46.2273 25.5146 42.792 21.9117 40.6135C18.3088 38.5188 12.3598 38.5188 8.67315 40.6135Z" fill="white"/>
<path fill-rule="evenodd" clip-rule="evenodd" d="M9.93001 47.5678C12.8626 49.2435 17.6385 49.2435 20.5711 47.5678C21.0739 47.2326 21.4928 46.8975 21.828 46.5623C23.4199 44.8865 23.001 42.7918 20.5711 41.3674C17.6385 39.6917 12.8626 39.6917 9.84624 41.3674C8.92457 41.8702 8.33806 42.5405 7.91912 43.2108C7.24881 44.719 7.8353 46.3947 9.93001 47.5678Z" fill="#C2D4DC"/>
<path fill-rule="evenodd" clip-rule="evenodd" d="M9.93004 47.568C12.8626 49.2438 17.6386 49.2438 20.5712 47.568C21.0739 47.2329 21.4928 46.8977 21.828 46.5626C22.6659 45.0544 21.9956 43.3786 19.9846 42.2056C17.052 40.5298 12.2762 40.5298 9.34357 42.2056C8.84084 42.5407 8.4219 42.8759 8.08674 43.211C7.24886 44.7192 7.83534 46.395 9.93004 47.568Z" fill="#E3EBF0"/>
<path fill-rule="evenodd" clip-rule="evenodd" d="M9.42732 45.0545C10.0138 45.3896 11.1031 45.3896 11.6896 45.0545C11.7734 44.9707 11.8572 44.8869 11.941 44.8869C12.1085 44.5517 11.941 44.2166 11.522 43.9652C10.9355 43.6301 9.84625 43.6301 9.25974 43.9652C9.17595 44.049 9.09217 44.1328 9.00838 44.1328C8.92459 44.4679 9.00838 44.8031 9.42732 45.0545Z" fill="#ABA9A6"/>
<path fill-rule="evenodd" clip-rule="evenodd" d="M1.88632 12.6284L5.90815 44.6356C5.90815 46.06 6.82983 47.4006 8.58938 48.4898C11.3544 50.0818 15.46 50.5007 18.8116 49.6629L21.5766 12.6284L18.8116 49.6629C19.9008 49.4115 20.9063 48.9925 21.8279 48.4898C23.6713 47.4006 24.5929 45.9762 24.5929 44.6356L28.6148 12.6284H21.6603H1.88632V12.6284Z" fill="#C2895F"/>
<path fill-rule="evenodd" clip-rule="evenodd" d="M0.713351 12.796V12.8797C0.713351 14.1366 1.29991 15.8124 2.22158 17.2368V13.969V17.2368C2.89189 18.2422 3.81352 19.0801 4.90277 19.7504C6.99747 20.9234 9.51115 21.6775 12.1086 22.0127V18.326V22.0127C12.1924 22.0127 12.2762 22.0127 12.3599 22.0127C12.4437 22.0127 12.6113 22.0127 12.6951 22.0127C12.7789 22.0127 12.9465 22.0127 13.0302 22.0127C13.114 22.0127 13.1978 22.0127 13.3654 22.0127H13.4492C13.533 22.0127 13.6168 22.0127 13.7844 22.0127H13.8681C14.1195 22.0127 14.2871 22.0127 14.5384 22.0127H14.6222C14.706 22.0127 14.7898 22.0127 14.9574 22.0127H15.0412C15.125 22.0127 15.2087 22.0127 15.2925 22.0127H15.3763C15.4601 22.0127 15.5439 22.0127 15.7115 22.0127H15.7952C15.879 22.0127 15.9629 22.0127 16.0467 22.0127C16.1304 22.0127 16.298 22.0127 16.3818 22.0127H16.4656C16.5494 22.0127 16.6331 22.0127 16.8007 22.0127H16.8845H17.1359H17.2197C17.3034 22.0127 17.3873 22.0127 17.5548 22.0127C17.6386 22.0127 17.7224 22.0127 17.8062 22.0127H17.89C17.9737 22.0127 18.0576 22.0127 18.1414 22.0127H18.2251C18.3927 22.0127 18.6441 21.9289 18.8117 21.9289H18.8954C19.063 21.9289 19.3144 21.8451 19.482 21.8451H19.5657C19.6495 21.8451 19.7333 21.8451 19.9009 21.7613C19.9847 21.7613 20.0685 21.7613 20.1522 21.6775C20.236 21.6775 20.3198 21.5938 20.4874 21.5938C20.5712 21.5938 20.655 21.5099 20.8225 21.5099C20.9063 21.5099 21.0739 21.4262 21.1577 21.4262C22.7497 21.0072 24.3417 20.4207 25.6823 19.6666C26.8553 18.9963 27.777 18.2422 28.4473 17.4043L28.5311 17.3205C28.6149 17.2367 28.6987 17.0692 28.8663 16.9016C28.95 16.734 29.0338 16.6502 29.1176 16.4826L29.2014 16.3989C29.2014 16.3151 29.2852 16.2313 29.2852 16.2313L29.369 16.1475C29.369 16.0637 29.4528 15.9799 29.4528 15.9799L29.5365 15.8962L29.6203 15.8123L29.7041 15.7286V15.6448V15.561V15.4772V15.3934V15.3096V15.2258V15.142V15.0583C29.7041 14.9745 29.7041 14.8907 29.7879 14.8907V14.8069V14.7231V14.6393V14.5555V14.4717V14.388V14.3042V14.2204V14.1366V14.0528V10.3661V10.4499V10.5337V10.6175V10.7013V10.785V10.8688V10.9526V11.0364V11.1202V11.204V11.2878V11.3716V11.4554V11.5392V11.6229V11.7067C29.7879 11.7905 29.7041 11.8743 29.7041 11.8743V11.9581V12.0419C29.7041 12.1257 29.6203 12.2095 29.6203 12.2095L29.5365 12.2932L29.4528 12.377L29.369 12.4608C29.2852 12.5446 29.2852 12.6284 29.2014 12.796L29.1176 12.8797C29.1176 12.9635 29.0338 13.0473 28.95 13.0473C28.8662 13.2149 28.6987 13.3825 28.6149 13.5501L28.5311 13.6339C28.4473 13.7177 28.3635 13.8014 28.2797 13.8852L28.196 13.969C27.5256 14.6393 26.6878 15.3096 25.6823 15.8962C25.5985 15.9799 25.5147 15.9799 25.4309 16.0637C25.3471 16.1475 25.2633 16.1475 25.1795 16.2313C25.0958 16.3151 25.012 16.3151 24.9282 16.3989C24.8444 16.4827 24.7606 16.4827 24.6768 16.5665C24.5093 16.6502 24.3417 16.734 24.0903 16.8178C23.9227 16.9016 23.7551 16.9854 23.5038 17.0692C23.3362 17.153 23.0848 17.2367 22.9173 17.3205C22.8335 17.3205 22.7497 17.4043 22.5821 17.4043C22.4146 17.4881 22.1632 17.5719 21.9956 17.5719C21.828 17.6557 21.5766 17.6557 21.4091 17.7395H21.3253C21.2415 17.7395 21.1577 17.8233 21.0739 17.8233C20.9902 17.8233 20.9063 17.907 20.8225 17.907H20.7388C20.655 17.907 20.4874 17.9909 20.4036 17.9909C20.3198 17.9909 20.1523 18.0746 20.0685 18.0746C19.9847 18.0746 19.9009 18.0746 19.7333 18.1584H19.6495C19.5658 18.1584 19.482 18.1584 19.3982 18.2422C19.3144 18.2422 19.2306 18.2422 19.063 18.326H18.9792C18.8955 18.326 18.8116 18.326 18.6441 18.326C18.5603 18.326 18.4765 18.326 18.3927 18.326H18.3089C18.2251 18.326 18.1413 18.326 17.9738 18.326C17.89 18.326 17.8062 18.326 17.6386 18.326C17.5548 18.326 17.3873 18.326 17.3035 18.326H17.2197C17.1359 18.326 17.0521 18.326 16.9683 18.326H16.8845C16.8007 18.326 16.7169 18.326 16.6331 18.326H16.5494C16.4656 18.326 16.3818 18.326 16.2142 18.326C16.1304 18.326 16.0466 18.326 15.8791 18.326C15.7953 18.326 15.6277 18.326 15.5439 18.326C15.4601 18.326 15.2926 18.326 15.2088 18.326C15.125 18.326 14.9574 18.326 14.8736 18.326H14.7898C14.5385 18.326 14.3708 18.326 14.1195 18.326H14.0357C13.7843 18.326 13.6168 18.326 13.3654 18.2422C13.2816 18.2422 13.114 18.2422 13.0302 18.2422C12.9465 18.2422 12.7789 18.2422 12.6951 18.2422C12.6113 18.2422 12.5275 18.2422 12.4437 18.2422C12.1923 18.2422 11.941 18.1584 11.6896 18.1584C11.6059 18.1584 11.4383 18.1584 11.3545 18.0746C11.2707 18.0746 11.1869 18.0747 11.0194 17.9909H10.9355C10.8517 17.9909 10.768 17.9908 10.6842 17.907H10.6004L10.349 17.8233H10.2652L10.0139 17.7395H9.93006L9.67871 17.6557H9.59494C9.51115 17.6557 9.42738 17.5719 9.34359 17.5719H9.25977C9.17598 17.5719 9.0922 17.4881 9.00841 17.4881C8.92462 17.4881 8.84085 17.4043 8.75706 17.4043H8.67324C8.58945 17.4043 8.50567 17.3205 8.42188 17.3205H8.33812C8.25433 17.3205 8.17055 17.2368 8.08676 17.2368C8.00297 17.2368 7.91914 17.153 7.83536 17.153C7.75157 17.153 7.66779 17.0692 7.584 17.0692C7.50021 17.0692 7.41644 16.9854 7.33265 16.9854C7.24886 16.9854 7.16508 16.9016 7.08129 16.9016C6.9975 16.9016 6.91373 16.8178 6.82994 16.8178C6.74615 16.8178 6.66232 16.734 6.57853 16.734C6.49474 16.734 6.41097 16.6502 6.32718 16.5665C6.24339 16.4827 6.15961 16.4827 6.07582 16.3989C5.90825 16.3151 5.74069 16.2313 5.57311 16.0637L5.40553 15.9799C5.32174 15.8961 5.23796 15.8961 5.15417 15.8123C4.2325 15.2258 3.4784 14.5555 2.89188 13.8852L2.80806 13.8014C1.97018 12.796 1.46749 11.7067 1.3837 10.6175C1.3837 10.4499 1.3837 10.3661 1.3837 10.1985V10.1147L0.713351 12.796Z" fill="#2E2020"/>
<path fill-rule="evenodd" clip-rule="evenodd" d="M4.98648 4.24949C-0.711124 7.51723 -0.711155 12.8797 4.90266 16.1474C10.6003 19.4152 19.817 19.4152 25.5146 16.1474C31.2122 12.8797 31.2122 7.51723 25.5984 4.24949C19.9008 0.897957 10.6841 0.897957 4.98648 4.24949Z" fill="#605252"/>
<path fill-rule="evenodd" clip-rule="evenodd" d="M2.64048 7.68457C2.64048 7.76836 2.64048 7.93593 2.64048 8.01972V8.10351V8.18731V8.27107V8.35487V8.43866V8.52245V8.60625V8.69001C2.64048 8.7738 2.72425 8.85761 2.72425 8.94139V9.02519V9.10896V9.19275V9.27654V9.36034V9.44413V9.5279V9.61169V9.69548V9.77928V9.86307L2.80802 9.94684L2.89184 10.0306C2.89184 10.1144 2.9756 10.1144 2.9756 10.1982V10.282C2.9756 10.3658 3.05942 10.3658 3.05942 10.4496L3.14319 10.5334L3.22696 10.6172L3.31078 10.701C3.56214 10.9523 3.72969 11.2037 4.06484 11.455L4.14866 11.5388C4.23245 11.6226 4.23246 11.6226 4.31625 11.7064C4.40004 11.7902 4.4 11.7902 4.48378 11.874C4.56757 11.9578 4.56758 11.9578 4.65137 12.0415H4.73519L4.81896 12.1253L4.90273 12.2091L4.98654 12.2929L5.07031 12.3767L5.15413 12.4605L5.2379 12.5443L5.32167 12.6281L5.40549 12.7119C5.48927 12.7957 5.57305 12.7956 5.65684 12.8794C5.74063 12.8794 5.82441 12.9632 5.9082 12.9632C5.99198 12.9632 6.07576 13.047 6.15955 13.047C6.24334 13.047 6.32714 13.1308 6.32714 13.1308C6.41093 13.1308 6.4947 13.2146 6.57849 13.2146C6.66228 13.2146 6.74611 13.2984 6.8299 13.2984C6.91369 13.2984 6.99746 13.3822 7.08125 13.3822C7.16504 13.3822 7.24882 13.466 7.33261 13.466H7.41637C7.50016 13.466 7.58396 13.5498 7.58396 13.5498H7.66778C7.75157 13.5498 7.83535 13.6335 7.91914 13.6335H8.0029C8.08669 13.6335 8.17047 13.7173 8.25426 13.7173H8.33808C8.42186 13.7173 8.50564 13.8011 8.58943 13.8011H8.6732L8.84079 13.8849H8.92461L9.09214 13.9687H9.17596C9.25975 13.9687 9.34353 13.9687 9.42731 14.0525H9.51108L9.76249 14.1363H9.84626L10.0138 14.22H10.0976C10.1814 14.22 10.2652 14.2201 10.349 14.3038H10.4328C10.5166 14.3038 10.6004 14.3038 10.6841 14.3876C10.7679 14.3876 10.8517 14.3876 10.9355 14.4714H11.0193C11.1031 14.4714 11.1869 14.4714 11.2707 14.4714H11.3544H11.6058H11.6896C11.7734 14.4714 11.8572 14.4714 11.941 14.4714H12.0247H12.1086V16.7337C12.4437 16.7337 12.695 16.8175 13.0302 16.8175H13.114C13.4492 16.8175 13.7005 16.8175 14.0357 16.9013H14.1194H14.287H14.3708C14.4546 16.9013 14.5384 16.9013 14.706 16.9013H14.7898H15.0411H15.1249H15.2925H15.3763H15.5439H15.7114H15.7952H15.9628H16.1304H16.298H16.3817H16.6331H16.7169H16.8845H16.9683H17.2196H17.3034H17.471H17.5548C17.6386 16.9013 17.7224 16.9013 17.8061 16.9013H17.8899C17.9737 16.9013 18.0575 16.9013 18.1413 16.9013H18.3927H18.4764C18.5602 16.9013 18.644 16.9013 18.7278 16.8175C18.8116 16.8175 18.8954 16.8175 18.9792 16.7337C19.063 16.7337 19.1468 16.7337 19.2306 16.6499H19.3143L19.4819 16.5661H19.5657C19.6495 16.5661 19.7333 16.5661 19.8171 16.4823C19.9009 16.4823 19.9847 16.3985 20.0684 16.3985C20.1522 16.3985 20.236 16.3148 20.3198 16.3148C20.4036 16.3148 20.4874 16.231 20.5711 16.231C20.6549 16.231 20.7387 16.1472 20.8225 16.1472C20.9063 16.1472 20.9901 16.0634 21.0739 16.0634C21.2415 15.9796 21.409 15.9796 21.5766 15.8958C21.7442 15.8121 21.9118 15.7283 22.0793 15.7283H22.1631C22.2469 15.7283 22.3307 15.6444 22.4145 15.6444C22.4983 15.6444 22.5821 15.5607 22.6659 15.5607C22.7496 15.5607 22.8334 15.4769 22.9172 15.4769H23.001C23.0848 15.4769 23.0848 15.3931 23.1686 15.3931C23.2524 15.3931 23.3362 15.3093 23.3362 15.3093H23.42C23.5038 15.3093 23.5876 15.2255 23.5876 15.2255C26.1012 13.8011 27.358 11.874 27.358 10.0306V7.76836C27.358 9.69549 26.1012 11.5388 23.5876 12.9632C23.5038 12.9632 23.42 13.047 23.42 13.047H23.3362C23.2524 13.047 23.1686 13.1308 23.1686 13.1308L23.001 13.2146H22.9172C22.8334 13.2146 22.7497 13.2984 22.7497 13.2984H22.6659L22.4983 13.3822H22.4145C22.3307 13.3822 22.2469 13.466 22.2469 13.466H22.1631L21.9956 13.5498H21.9118L21.7442 13.6335H21.6604L21.4929 13.7173H21.409L21.2414 13.8011H21.1577L20.9901 13.8849H20.9063L20.7387 13.9687H20.655L20.4874 14.0525H20.4036H20.3198L20.1522 14.1363H20.0684H19.9009H19.7333H19.5657H19.4819H19.3143H19.1467H19.063H18.8954H18.7278H18.5603H18.4764H18.3089H18.1413H17.9737H17.8061H17.6386H17.471H17.3034H17.2196H16.9683H16.8845H16.7169H16.6331H16.3817H16.298H16.1304H15.9628H15.7952H15.7114H15.4601H15.3763H15.2087H15.0411H14.9573H14.7898H14.6222H14.5384H14.287H14.2033H13.9519H13.7005H13.6167H13.4491H13.3654H13.1978H13.114H12.8626H12.7788H12.6113H12.5275H12.3599V16.3985H12.1923H12.0247H11.8572H11.6896H11.522H11.3544H11.2707H11.1031H11.0193L10.7679 16.3148H10.6841H10.5166H10.4328H10.2652H10.1814L10.0138 16.231H9.93002L9.76249 16.1472H9.67867L9.42731 16.0634H9.34355C9.25976 16.0634 9.17593 15.9796 9.09214 15.9796C9.00835 15.9796 8.92457 15.8958 8.84079 15.8958H8.75702C8.67323 15.8958 8.58945 15.812 8.50566 15.812C8.42188 15.812 8.33805 15.7283 8.25426 15.7283H8.17049L8.0029 15.6444H7.91914C7.83535 15.6444 7.75157 15.5607 7.66778 15.5607C7.58399 15.5607 7.50016 15.4769 7.41637 15.4769C7.33259 15.4769 7.24881 15.3931 7.16502 15.3931C7.08123 15.3931 6.99745 15.3093 6.91367 15.3093C6.82988 15.3093 6.7461 15.2255 6.66231 15.2255C6.57852 15.2255 6.49474 15.1417 6.41096 15.1417C6.32717 15.1417 6.24334 15.058 6.15955 15.058C6.07576 14.9742 5.99198 14.9742 5.9082 14.8904L5.82443 14.8066L5.74061 14.7228C5.65682 14.7228 5.57307 14.639 5.57307 14.639C5.48928 14.5552 5.40548 14.4714 5.2379 14.4714C5.07032 14.3876 4.98653 14.3038 4.81896 14.22C4.73517 14.1363 4.73516 14.1363 4.65137 14.0525L4.5676 13.9687H4.48378L4.40002 13.8849L4.31625 13.8011C4.06488 13.5497 3.81348 13.3822 3.6459 13.1308C3.22696 12.6281 2.89183 12.1253 2.72425 11.6226C2.64046 11.5388 2.64045 11.3712 2.55666 11.2875C2.55666 11.2037 2.55668 11.2037 2.4729 11.1199V11.0361V10.9523C2.4729 10.8685 2.4729 10.8685 2.4729 10.7847V10.701V10.6172V10.5334V10.4496V10.3658V10.282V10.1982V10.1144V10.0306V9.94684L2.64048 7.68457Z" fill="#2E2020"/>
<path fill-rule="evenodd" clip-rule="evenodd" d="M6.32706 2.48963C1.38355 5.33843 1.38357 10.0306 6.24329 12.8794C11.1868 15.7282 19.1467 15.7282 24.174 12.8794C29.1175 10.0306 29.2013 5.33843 24.2578 2.48963C19.3143 -0.359173 11.2706 -0.359173 6.32706 2.48963Z" fill="#605252"/>
<path fill-rule="evenodd" clip-rule="evenodd" d="M8.00296 11.8742C11.941 14.2203 18.4765 14.2203 22.4146 11.8742C23.0849 11.4553 23.6714 11.0363 24.1741 10.5336C26.3526 8.27132 25.7661 5.42253 22.4983 3.49539C18.5603 1.14932 12.0248 1.14932 8.08678 3.49539C6.82995 4.1657 5.99204 5.08737 5.48931 5.92525C4.48385 7.93617 5.32173 10.2822 8.00296 11.8742Z" fill="#2E2020"/>
<path fill-rule="evenodd" clip-rule="evenodd" d="M8.00293 11.8741C11.941 14.2202 18.4765 14.2202 22.4145 11.8741C23.0848 11.4552 23.6713 11.0362 24.1741 10.5335C25.2633 8.52256 24.4254 6.26027 21.6604 4.58451C17.7224 2.23843 11.2707 2.23843 7.24886 4.58451C6.57856 5.00345 5.99201 5.42239 5.48928 5.92512C4.48382 7.93604 5.3217 10.2821 8.00293 11.8741Z" fill="#605252"/>
<path fill-rule="evenodd" clip-rule="evenodd" d="M10.3489 8.01981C10.5164 8.10359 10.6002 8.18737 10.684 8.27116C10.7678 8.18737 10.7678 8.18739 10.8516 8.1036C11.103 7.68466 10.9354 7.18193 10.3489 6.84677C9.51097 6.34404 8.1704 6.34404 7.24873 6.84677C7.08115 6.93056 6.99734 7.01434 6.91355 7.09813C6.74598 7.43328 6.82978 7.76845 7.08114 8.1036C7.16493 8.01981 7.16494 8.0198 7.24873 7.93601C8.08661 7.51707 9.51097 7.51708 10.3489 8.01981Z" fill="#2E2020"/>
<path fill-rule="evenodd" clip-rule="evenodd" d="M10.5165 8.43881C10.6003 8.43881 10.6841 8.35501 10.6841 8.27122C10.6003 8.18744 10.4327 8.10366 10.3489 8.01987C9.51103 7.51714 8.17045 7.51714 7.24878 8.01987C7.16499 8.01987 7.0812 8.10367 7.0812 8.18746C7.16498 8.27124 7.33253 8.35502 7.41632 8.43881C8.2542 8.94154 9.67861 8.94154 10.5165 8.43881Z" fill="#555356"/>
</svg>
