<svg width="71" height="69" viewBox="0 0 71 69" fill="none" xmlns="http://www.w3.org/2000/svg">
<path d="M0.920827 0.901848C0.63294 1.05822 0.536978 1.4648 0.63294 2.15285C0.728902 2.68453 0.824864 17.7904 0.856852 35.6799L0.920827 68.1748L35.4672 68.2061H70.0136L69.9496 67.1114C69.6617 63.2333 69.5338 9.03339 69.7897 5.4993C69.9816 3.18494 70.0136 1.18332 69.8856 1.02695C69.5658 0.714195 1.4966 0.589096 0.920827 0.901848ZM66.1751 3.49769C66.463 3.62279 66.8468 4.06064 67.0068 4.46722C67.1667 4.87379 67.2947 14.3502 67.3266 26.2347C67.3266 39.1514 67.4546 47.7834 67.6785 48.6591C68.0943 50.5668 68.0943 58.6046 67.6465 59.6992C67.4546 60.1996 67.2947 61.3881 67.2947 62.3889C67.2947 63.8901 67.1667 64.2967 66.527 64.8909C65.4074 65.923 61.5689 66.3295 53.7 66.267C42.6964 66.2044 34.6995 66.2044 28.9098 66.2357C22.8002 66.2983 8.40588 65.923 6.35868 65.6728C5.65496 65.6102 4.72733 65.2662 4.2795 64.9222C3.51181 64.3592 3.47982 64.1403 3.35187 60.7938C3.28789 58.8548 3.22392 45.4064 3.22392 30.926C3.19193 2.96601 3.15994 3.81044 4.69534 3.52896C5.84688 3.31004 65.5993 3.27876 66.1751 3.49769Z" fill="white"/>
<path d="M51.1409 31.5198C50.4372 31.6762 49.3497 32.0515 48.7419 32.3329C47.1745 33.0835 44.5835 35.7107 44.5835 36.5864C44.5835 36.9929 44.4236 37.7748 44.1997 38.3378C43.7199 39.7139 44.3596 43.0603 45.4152 44.6866C46.3109 46.0002 49.7975 48.6586 50.6611 48.6586C50.981 48.6586 51.3968 48.8775 51.6208 49.1277C51.8447 49.3779 52.2285 49.5968 52.4524 49.5968C53.3161 49.5968 57.1226 51.5985 57.7303 52.3491C58.594 53.4437 58.53 55.3202 57.6344 56.1959C56.6428 57.0716 55.6832 57.4156 54.0518 57.4156C51.3649 57.4156 50.5972 57.0716 48.7419 55.1951L46.9826 53.3811L45.895 54.2568C45.2873 54.726 44.1997 55.3828 43.432 55.7268C42.6643 56.0395 42.0245 56.4461 42.0245 56.6025C42.0245 57.4782 46.7587 61.7942 47.7183 61.7942C47.8782 61.7942 48.454 62.0131 48.9338 62.2633C49.6056 62.6073 50.917 62.7324 53.7319 62.7324C56.9946 62.7324 57.8583 62.6386 59.1378 62.0756C62.7524 60.5119 64.3837 58.1975 64.6396 54.2881C64.8955 50.3162 62.6884 47.345 57.7303 45.0307C56.3869 44.4052 54.9155 43.6858 54.4356 43.4669C53.9878 43.2167 53.444 43.0291 53.2201 43.0291C52.4524 43.0291 50.3733 41.1213 50.1813 40.2143C49.7975 38.4629 51.5248 36.5238 53.604 36.4925C54.7235 36.4613 56.2269 37.337 56.8987 38.4003C57.1866 38.8695 57.6024 39.276 57.8263 39.276C58.3381 39.276 62.8163 36.43 62.8163 36.1172C62.8163 35.7419 60.9931 33.9592 59.5216 32.8959C58.69 32.2704 57.6024 31.8638 56.003 31.5823C53.3481 31.1132 52.9003 31.1132 51.1409 31.5198Z" fill="white"/>
<path d="M32.2044 31.8638C32.1405 31.9889 32.0765 37.2119 32.1085 43.4669C32.1405 57.4469 32.1405 57.3844 28.4299 57.4156C26.8945 57.4156 26.0309 56.884 25.0713 55.3828C24.4315 54.3819 23.3759 53.9128 23.088 54.5383C22.9281 54.8823 21.1368 56.0395 20.4011 56.2897C20.0172 56.4148 19.4735 56.7589 19.1856 57.0716C18.7058 57.6033 18.7697 57.7284 20.529 59.5111C23.152 62.1695 24.5914 62.7324 28.8778 62.7324C31.4048 62.7324 32.4603 62.6073 32.9401 62.2633C33.26 62.0131 33.7718 61.7942 34.0277 61.7942C34.5715 61.7942 36.4907 59.9177 37.1945 58.6666C37.4504 58.2288 37.8022 57.3218 37.9622 56.6338C38.1861 55.7268 38.6659 39.0884 38.6659 31.8638C38.6659 31.6762 32.3324 31.6762 32.2044 31.8638Z" fill="white"/>
</svg>
