<svg width="85" height="86" viewBox="0 0 85 86" fill="none" xmlns="http://www.w3.org/2000/svg">
<path d="M27.6533 7.01711C25.0467 7.73489 23.9511 8.33932 21.8356 10.2282C20.7022 11.2104 19.6067 12.7215 18.8133 14.3082C17.68 16.5749 17.5667 17.1416 17.5667 20.2393C17.5667 23.186 17.7178 23.9416 18.6244 25.9438C19.2289 27.2282 20.4378 29.0038 21.3444 29.8727L23.0067 31.5349L21.3067 33.3482C20.3622 34.3682 19.1533 36.1438 18.5867 37.3527C17.7178 39.2038 17.5667 39.9971 17.5667 42.906C17.5667 45.8149 17.7178 46.6082 18.5867 48.4593C19.1533 49.6682 20.3622 51.4438 21.3067 52.4638L23.0067 54.2771L21.3444 55.9393C20.4378 56.8082 19.2289 58.5838 18.6244 59.8682C17.7178 61.8704 17.5667 62.626 17.5667 65.5727C17.5667 68.6704 17.68 69.2371 18.8133 71.5038C20.2489 74.4504 22.6289 76.7549 25.6889 78.1527C27.4267 78.9838 28.3333 79.1349 31.1667 79.1349C34.0756 79.1727 34.8689 79.0216 36.6822 78.1904C39.1 77.0571 41.6311 74.9038 42.8778 72.9393C44.6533 70.0682 44.9556 68.3682 44.9556 60.7749V53.6727L46.3911 54.5416C50.4333 57.1104 55.4956 57.3749 59.8022 55.2593C62.7111 53.8238 65.0533 51.406 66.4133 48.4593C67.2822 46.6082 67.4333 45.8149 67.4333 42.906C67.4333 39.9971 67.2822 39.2038 66.4133 37.3527C65.8467 36.1438 64.6378 34.3682 63.6933 33.3482L61.9933 31.5349L63.6556 29.8727C64.5622 29.0038 65.7711 27.2282 66.3756 25.9438C67.2822 23.9416 67.4333 23.186 67.4333 20.2393C67.4333 17.1416 67.32 16.5749 66.1867 14.3082C64.7511 11.3615 62.4089 9.09489 59.3111 7.62155L57.2333 6.63933L43.4444 6.56377C32.3756 6.48822 29.2778 6.56377 27.6533 7.01711ZM40.0444 20.466V29.1927L34.4911 29.0415C28.4844 28.8904 27.4644 28.626 25.1978 26.5104C22.2133 23.7904 21.7222 18.9171 23.9889 15.4416C24.5178 14.6482 25.84 13.5149 26.9356 12.8727C28.8622 11.7771 28.9756 11.7393 34.4911 11.7393H40.0444V20.466ZM58.0644 12.8727C59.16 13.5149 60.4822 14.6482 61.0111 15.4416C63.2778 18.9171 62.7867 23.7904 59.8022 26.5104C57.5356 28.626 56.5156 28.8904 50.5467 29.0415L44.9556 29.1927V20.466V11.7393H50.5467C56.0244 11.7393 56.1378 11.7771 58.0644 12.8727ZM40.0444 42.906V51.7838H35.3978C30.0333 51.7838 27.6911 51.2549 25.6133 49.5171C21.5711 46.1927 21.5711 39.6571 25.6133 36.2949C27.6911 34.5571 29.7689 34.066 35.2467 34.066L40.0444 34.0282V42.906ZM56.1378 34.5949C64.5622 37.0882 64.4867 48.7616 56.0244 51.2549C50.5844 52.8416 45.22 48.7238 45.22 42.906C45.22 38.7504 47.8644 35.3882 51.9444 34.3682C53.6822 33.9527 54.0978 33.9904 56.1378 34.5949ZM40.0067 62.286C39.8556 67.7638 39.8178 67.9527 38.7222 69.766C36.9844 72.5616 34.9067 73.846 31.7711 73.9971C29.58 74.1482 28.9378 73.9971 27.2756 73.166C21.08 70.0304 20.9289 61.0771 27.0111 57.9416C28.9756 56.8838 29.92 56.7704 35.0956 56.7327L40.12 56.6949L40.0067 62.286Z" fill="white"/>
</svg>
