<svg width="472" height="469" viewBox="0 0 472 469" fill="none" xmlns="http://www.w3.org/2000/svg">
<path d="M398.96 235.8V454.2C398.96 462.04 392.8 468.2 384.96 468.2H290.319V337.16C290.319 329.32 284.159 323.16 276.319 323.16H195.678C187.838 323.16 181.678 329.32 181.678 337.16V468.2H87.037C79.1972 468.2 73.037 462.04 73.037 454.2V236.36L235.997 123.24L398.96 235.8ZM228.16 3.40004L6.96001 156.28C3.03811 159.077 0.799805 163.557 0.799805 168.038V242.518C0.799805 253.717 13.6788 260.44 22.6398 254.28L73.0378 219.561L131.276 179.241L235.996 106.44L340.716 178.678L398.954 218.998L449.352 253.717C458.871 259.877 471.192 253.717 471.192 241.955L471.196 168.037C471.196 163.557 468.957 159.076 465.036 156.275L243.836 3.39504C239.355 0.0356383 232.637 0.0356383 228.156 3.39504L228.16 3.40004Z" fill="black"/>
</svg>
