<svg width="102" height="100" viewBox="0 0 102 100" fill="none" xmlns="http://www.w3.org/2000/svg">
<path d="M45.2872 74.0047C45.2872 74.0047 41.8738 75.9367 47.7083 76.5936C54.793 77.3857 58.4048 77.2698 66.2039 75.8208C66.2039 75.8208 68.248 77.0766 71.1255 78.1779C53.6221 85.4616 31.5345 77.7335 45.2872 74.0047ZM43.1439 64.4992C43.1439 64.4992 39.3138 67.262 45.1483 67.8416C52.7291 68.6144 58.6826 68.6724 69.022 66.7404C69.022 66.7404 70.4508 68.1507 72.6933 68.9235C51.5583 74.9128 28.0219 69.3679 43.1439 64.4992ZM61.1434 48.3476C65.4498 53.1777 60.0123 57.5247 60.0123 57.5247C60.0123 57.5247 70.9469 52.0184 65.9261 45.1405C61.2427 38.7069 57.6309 35.5384 77.0989 24.5259C77.1188 24.5259 46.5374 31.9642 61.1434 48.3476ZM84.263 81.0566C84.263 81.0566 86.8032 83.0852 81.4847 84.6501C71.4034 87.6254 39.4924 88.5141 30.6217 84.766C27.4464 83.4136 33.4198 81.5396 35.2853 81.1532C37.2499 80.7281 38.3612 80.8247 38.3612 80.8247C34.809 78.3904 15.46 85.5968 28.5181 87.664C64.1996 93.2669 93.5307 85.1138 84.263 81.0566ZM46.9145 54.6267C46.9145 54.6267 30.6812 58.3748 41.1594 59.7272C45.5849 60.3068 54.4159 60.1715 62.6517 59.4953C69.3593 58.935 76.1067 57.7758 76.1067 57.7758C76.1067 57.7758 73.7451 58.7612 72.0186 59.9204C55.5273 64.1322 23.6957 62.1615 32.8641 57.8531C40.6236 54.2209 46.9145 54.6267 46.9145 54.6267ZM76.0471 70.4692C92.7964 61.9876 85.037 53.8345 79.6589 54.9551C78.3293 55.2063 77.734 55.4574 77.734 55.4574C77.734 55.4574 78.2102 54.7039 79.1628 54.3755C89.8593 50.7047 98.095 65.1754 75.7098 70.8942C75.7098 70.8942 75.9677 70.6817 76.0471 70.4692ZM65.9261 6.77075C65.9261 6.77075 75.1938 15.7932 57.1149 29.6844C42.6279 40.8321 53.8206 47.1884 57.1149 54.4528C48.6609 47.0145 42.4493 40.4843 46.6168 34.3985C52.7291 25.4533 69.6768 21.1256 65.9261 6.77075ZM48.5616 93.4408C64.6362 94.4261 89.3235 92.8805 89.9387 85.4809C89.9387 85.4809 88.8075 88.2823 76.6425 90.5234C62.9295 93.035 45.9818 92.7452 35.9401 91.1417C35.9401 91.1223 38.004 92.7839 48.5616 93.4408Z" fill="white"/>
</svg>
