<svg width="72" height="72" viewBox="0 0 72 72" fill="none" xmlns="http://www.w3.org/2000/svg">
<g clip-path="url(#clip0_44_195)">
<path fill-rule="evenodd" clip-rule="evenodd" d="M0.527588 0.126221H71.7968V71.5677H0.527588V0.126221ZM19.2669 59.828L19.267 59.8279C20.8457 63.1844 23.9557 65.9657 29.3132 65.9657C35.2456 65.9657 39.3118 62.8006 39.3118 55.847V32.9248H32.6143V55.752C32.6143 59.1087 31.2269 59.9716 29.0261 59.9716C26.7302 59.9716 25.7731 58.3894 24.7209 56.5193L19.267 59.8279L19.2667 59.8274L19.2669 59.828ZM48.4031 55.9436L42.9498 59.1087C44.911 62.9933 48.9297 65.9664 55.1489 65.9664C61.5115 65.9664 66.2476 62.6577 66.2476 56.6149C66.2476 51.0043 63.0422 48.5108 57.3492 46.0649L55.6749 45.3456C52.8048 44.0987 51.5609 43.2833 51.5609 41.2691C51.5609 39.6388 52.8048 38.392 54.7663 38.392C56.6798 38.392 57.9233 39.2071 59.0715 41.2691L64.2862 37.9123C62.0857 34.0278 59.024 32.5411 54.7662 32.5411C48.7859 32.5411 44.9587 36.3777 44.9587 41.4131C44.9587 46.8802 48.1641 49.4697 52.9963 51.5315L54.6702 52.2513C57.7321 53.5936 59.5499 54.409 59.5499 56.7109C59.5499 58.6291 57.7803 60.02 55.0052 60.02C51.7044 60.02 49.8386 58.2937 48.4031 55.9436Z" fill="white"/>
</g>
<defs>
<clipPath id="clip0_44_195">
<rect width="71.2692" height="71.4415" fill="white" transform="translate(0.527588 0.126221)"/>
</clipPath>
</defs>
</svg>
