<svg width="233" height="251" viewBox="0 0 233 251" fill="none" xmlns="http://www.w3.org/2000/svg">
<path d="M105.602 142.661C108.676 150.436 114.389 168.047 112.653 176.292C110.918 184.537 122.417 201.063 128.384 208.295C111.569 213.901 77.1781 226.847 74.1405 233.79" stroke="black"/>
<path fill-rule="evenodd" clip-rule="evenodd" d="M0.616857 173.085V168.393L8.24162 168.477C37.0648 151.887 66.5583 135.632 95.3815 119.042C95.8004 118.79 96.4707 118.79 96.8059 118.958C137.862 143.089 178.918 167.304 219.975 191.435L227.935 191.519V196.462C227.935 196.63 227.767 196.713 227.599 196.881C196.346 214.979 165.093 232.91 133.338 250.673C132.919 250.924 132.248 250.924 131.829 250.673C87.9243 225.118 44.3544 199.311 0.784443 173.588C0.700655 173.504 0.616857 173.336 0.616857 173.085Z" fill="#C3C1BE"/>
<path fill-rule="evenodd" clip-rule="evenodd" d="M227.432 192.021L98.2302 116.109L99.5709 111.668L228.772 187.664L227.432 192.021Z" fill="#C3C1BE"/>
<path fill-rule="evenodd" clip-rule="evenodd" d="M226.51 74.0472C229.61 75.8905 232.124 79.9123 232.124 83.0963L231.37 186.659C231.37 189.759 228.772 190.848 225.672 189.005L101.079 115.858C97.9789 114.014 95.4653 109.992 95.4653 106.808L96.2194 3.24604C96.2194 0.145871 98.8168 -0.943367 101.917 0.899976L226.51 74.0472Z" fill="#C3C1BE"/>
<path fill-rule="evenodd" clip-rule="evenodd" d="M230.7 186.24C230.7 189.005 228.437 189.926 225.672 188.334L101.079 115.187C98.3141 113.595 96.1356 109.992 96.1356 107.227L96.8897 3.66492C96.8897 0.899903 99.152 -0.0217688 101.917 1.57021L226.51 74.7174C229.275 76.3094 231.454 79.9123 231.454 82.6773L230.7 186.24Z" fill="#535351"/>
<path fill-rule="evenodd" clip-rule="evenodd" d="M222.907 82.8448L222.153 177.609L104.012 108.568L104.682 13.8032L222.907 82.8448Z" fill="#363332"/>
<path fill-rule="evenodd" clip-rule="evenodd" d="M131.997 246.065C88.092 220.509 44.5221 194.702 0.952148 168.979C0.533207 168.728 0.533186 168.309 1.03592 168.141C32.2052 150.043 64.2123 132.448 95.5492 114.517C95.9681 114.266 96.6384 114.266 96.9735 114.433C140.627 140.072 184.197 165.795 227.851 191.435C228.186 191.686 228.186 192.021 227.767 192.273C196.514 210.371 165.261 228.302 133.505 246.065C133.003 246.232 132.416 246.232 131.997 246.065Z" fill="#EEF0EF"/>
<path fill-rule="evenodd" clip-rule="evenodd" d="M84.7404 213.806C75.4399 208.276 65.9718 202.83 56.6713 197.3C56.3362 197.048 56.3362 196.713 56.7551 196.462C62.1176 193.362 74.2669 186.323 79.7131 183.223C80.1321 182.972 80.7186 182.972 81.1375 183.223C90.5218 188.753 99.9061 194.367 109.29 199.897C109.626 200.148 109.626 200.484 109.207 200.735C103.76 203.835 91.6111 210.706 86.1648 213.806C85.7459 213.973 85.1594 213.973 84.7404 213.806Z" fill="#D7D7D6"/>
<path fill-rule="evenodd" clip-rule="evenodd" d="M157.552 225.872C116.412 201.992 75.775 177.777 34.9701 153.73C34.6349 153.478 34.6349 153.143 34.9701 152.892C64.1284 135.967 59.3525 139.486 88.6784 122.644C89.0974 122.393 89.6839 122.393 90.019 122.561C130.824 146.608 171.629 170.571 212.434 194.619C212.769 194.786 212.769 195.205 212.35 195.373C183.108 212.298 188.554 209.03 158.893 225.704C158.558 226.123 157.971 226.123 157.552 225.872Z" fill="#D7D7D6"/>
<path fill-rule="evenodd" clip-rule="evenodd" d="M127.808 166.968L128.059 166.884L133.84 163.533L128.729 160.517H128.478C128.394 160.517 128.31 160.517 128.31 160.517L122.613 163.868L127.724 166.884L127.808 166.968Z" fill="#363332"/>
<path fill-rule="evenodd" clip-rule="evenodd" d="M121.188 163.03L121.44 162.946L127.137 159.595L122.026 156.578H121.859C121.775 156.578 121.691 156.578 121.691 156.578L115.993 159.93L121.105 162.946L121.188 163.03Z" fill="#363332"/>
<path fill-rule="evenodd" clip-rule="evenodd" d="M114.485 159.092L114.737 159.009L120.434 155.657L115.323 152.641H115.072C114.988 152.641 114.904 152.641 114.904 152.641L109.207 155.992L114.318 159.009L114.485 159.092Z" fill="#363332"/>
<path fill-rule="evenodd" clip-rule="evenodd" d="M134.511 170.906L134.762 170.822L140.543 167.471L135.432 164.454H135.265C135.181 164.454 135.097 164.454 135.097 164.454L129.316 167.806L134.427 170.822L134.511 170.906Z" fill="#363332"/>
<path fill-rule="evenodd" clip-rule="evenodd" d="M141.214 174.761L141.465 174.677L147.246 171.325L142.135 168.309H141.968C141.884 168.309 141.8 168.309 141.8 168.309L136.019 171.66L141.13 174.677L141.214 174.761Z" fill="#363332"/>
<path fill-rule="evenodd" clip-rule="evenodd" d="M85.9135 159.93L86.1648 159.846L91.8624 156.579L81.3889 150.378L88.9298 146.021L80.8024 141.245C80.7186 141.245 80.6348 141.245 80.551 141.245C80.4672 141.245 80.3834 141.245 80.3834 141.245L67.1449 148.87L85.7459 159.846L85.9135 159.93Z" fill="#363332"/>
<path fill-rule="evenodd" clip-rule="evenodd" d="M107.782 155.154L108.034 155.07L113.731 151.719L108.62 148.702H108.369C108.285 148.702 108.201 148.702 108.201 148.702L102.504 152.054L107.615 155.07L107.782 155.154Z" fill="#363332"/>
<path fill-rule="evenodd" clip-rule="evenodd" d="M99.4033 167.89L99.6546 167.806L105.352 164.538L100.241 161.522H99.9898C99.906 161.522 99.8222 161.522 99.8222 161.522L94.1246 164.79L99.2357 167.806L99.4033 167.89Z" fill="#363332"/>
<path fill-rule="evenodd" clip-rule="evenodd" d="M100.912 151.049L101.163 150.965L106.861 147.613L88.3433 136.721H88.092C88.0082 136.721 87.9244 136.721 87.9244 136.721L82.2268 139.988C86.7514 142.67 100.744 150.881 100.744 150.881L100.912 151.049Z" fill="#363332"/>
<path fill-rule="evenodd" clip-rule="evenodd" d="M92.7002 163.952L92.9516 163.868L98.6492 160.601L93.4543 157.5H93.2867L93.1192 157.584L87.4216 160.852L92.5326 163.868L92.7002 163.952Z" fill="#363332"/>
<path fill-rule="evenodd" clip-rule="evenodd" d="M181.265 198.389L181.516 198.305L187.297 194.954L182.186 191.937H181.935C181.851 191.937 181.767 191.937 181.767 191.937L175.986 195.205L181.097 198.221L181.265 198.389Z" fill="#363332"/>
<path fill-rule="evenodd" clip-rule="evenodd" d="M159.228 203.081L159.48 202.997L165.261 199.729L160.15 196.713H159.898C159.815 196.713 159.731 196.713 159.731 196.713L153.949 199.981C155.96 201.154 157.05 201.74 159.061 202.997L159.228 203.081Z" fill="#363332"/>
<path fill-rule="evenodd" clip-rule="evenodd" d="M169.869 200.568L170.121 200.484L175.902 197.216L170.791 194.2H170.54C170.456 194.2 170.372 194.2 170.372 194.2L164.591 197.467L169.702 200.484L169.869 200.568Z" fill="#363332"/>
<path fill-rule="evenodd" clip-rule="evenodd" d="M147.833 205.26L148.084 205.176L153.866 201.908L148.755 198.892H148.503C148.419 198.892 148.336 198.892 148.336 198.892L142.554 202.16L147.665 205.176L147.833 205.26Z" fill="#363332"/>
<path fill-rule="evenodd" clip-rule="evenodd" d="M141.13 201.322L141.381 201.238L147.163 197.97L142.052 194.954H141.8C141.716 194.954 141.633 194.954 141.633 194.954L135.851 198.221L140.962 201.238L141.13 201.322Z" fill="#363332"/>
<path fill-rule="evenodd" clip-rule="evenodd" d="M147.833 178.699L148.084 178.615L153.866 175.263L148.755 172.247H148.587C148.503 172.247 148.419 172.247 148.419 172.247L142.638 175.599L147.749 178.615L147.833 178.699Z" fill="#363332"/>
<path fill-rule="evenodd" clip-rule="evenodd" d="M161.155 186.575L161.407 186.491L167.188 183.14L162.077 180.123H161.826C161.742 180.123 161.658 180.123 161.658 180.123L155.877 183.475L160.988 186.491L161.155 186.575Z" fill="#363332"/>
<path fill-rule="evenodd" clip-rule="evenodd" d="M154.536 182.636L154.787 182.553L160.569 179.201L155.458 176.185H155.206C155.123 176.185 155.039 176.185 155.039 176.185L149.257 179.536L154.368 182.553L154.536 182.636Z" fill="#363332"/>
<path fill-rule="evenodd" clip-rule="evenodd" d="M174.561 194.451L174.813 194.367L180.594 191.1L175.483 188.083H175.232C175.148 188.083 175.064 188.083 175.064 188.083L169.283 191.351L174.394 194.367L174.561 194.451Z" fill="#363332"/>
<path fill-rule="evenodd" clip-rule="evenodd" d="M167.858 190.513L168.11 190.429L173.891 187.161L168.78 184.145H168.529C168.445 184.145 168.361 184.145 168.361 184.145L162.58 187.412L167.691 190.429L167.858 190.513Z" fill="#363332"/>
<path fill-rule="evenodd" clip-rule="evenodd" d="M96.5544 157.332L96.8058 157.249L102.503 153.897L97.3923 150.881C97.3085 150.881 97.2247 150.881 97.1409 150.881H96.9734L91.2758 154.148L96.3869 157.165L96.5544 157.332Z" fill="#363332"/>
<path fill-rule="evenodd" clip-rule="evenodd" d="M116.58 169.147L116.831 169.063L122.529 165.711L117.418 162.695H117.166C117.083 162.695 116.999 162.695 116.999 162.695L111.301 166.047L116.412 169.063L116.58 169.147Z" fill="#363332"/>
<path fill-rule="evenodd" clip-rule="evenodd" d="M123.199 173.085L123.451 173.001L129.148 169.733L124.037 166.717H123.869C123.786 166.717 123.702 166.717 123.702 166.717L118.004 170.069L123.115 173.085H123.199Z" fill="#363332"/>
<path fill-rule="evenodd" clip-rule="evenodd" d="M109.877 165.209L110.128 165.125L115.826 161.773L110.715 158.757H110.463C110.38 158.757 110.296 158.757 110.296 158.757L104.598 162.109L109.709 165.125L109.877 165.209Z" fill="#363332"/>
<path fill-rule="evenodd" clip-rule="evenodd" d="M129.902 177.023L130.154 176.939L135.935 173.671L130.824 170.655H130.573C130.489 170.655 130.405 170.655 130.405 170.655L124.707 173.923L129.818 176.939L129.902 177.023Z" fill="#363332"/>
<path fill-rule="evenodd" clip-rule="evenodd" d="M136.522 180.961L136.773 180.877L142.554 177.61L137.443 174.593H137.276C137.192 174.593 137.108 174.593 137.108 174.593L131.327 177.861L136.438 180.877L136.522 180.961Z" fill="#363332"/>
<path fill-rule="evenodd" clip-rule="evenodd" d="M103.257 161.271L103.509 161.187L109.206 157.835L104.095 154.819H103.844C103.76 154.819 103.676 154.819 103.676 154.819L97.9788 158.17L103.09 161.187L103.257 161.271Z" fill="#363332"/>
<path fill-rule="evenodd" clip-rule="evenodd" d="M58.1795 152.305L58.4308 152.222L64.1285 148.954L58.8498 145.854H58.6822L58.4308 145.938C56.1685 147.278 54.9955 147.948 52.7332 149.205L58.0119 152.305H58.1795Z" fill="#363332"/>
<path fill-rule="evenodd" clip-rule="evenodd" d="M134.511 197.467L134.762 197.383L140.543 194.116L135.432 191.099H135.265C135.181 191.099 135.097 191.099 135.097 191.099L129.316 194.367L134.343 197.383L134.511 197.467Z" fill="#363332"/>
<path fill-rule="evenodd" clip-rule="evenodd" d="M106.023 171.828L106.274 171.744L111.972 168.477L106.86 165.46H106.609C106.525 165.46 106.442 165.46 106.442 165.46L100.744 168.728L105.855 171.744L106.023 171.828Z" fill="#363332"/>
<path fill-rule="evenodd" clip-rule="evenodd" d="M89.8514 153.395L90.1028 153.311L95.8004 150.043L90.6055 147.027C90.5217 147.027 90.4379 147.027 90.3541 147.027H90.1865L84.4889 150.295L89.6838 153.311L89.8514 153.395Z" fill="#363332"/>
<path fill-rule="evenodd" clip-rule="evenodd" d="M143.141 184.815L143.392 184.732L149.174 181.464L144.063 178.448H143.895C143.811 178.448 143.727 178.448 143.727 178.448L137.946 181.715L143.057 184.732L143.141 184.815Z" fill="#363332"/>
<path fill-rule="evenodd" clip-rule="evenodd" d="M132.584 187.413L132.835 187.329L138.616 184.061L133.505 181.045H133.338C133.254 181.045 133.17 181.045 133.17 181.045L127.389 184.312L132.416 187.329L132.584 187.413Z" fill="#363332"/>
<path fill-rule="evenodd" clip-rule="evenodd" d="M125.964 183.559L126.216 183.475L131.997 180.207L126.886 177.191H126.635C126.551 177.191 126.467 177.191 126.467 177.191L120.769 180.458C122.613 181.548 125.797 183.475 125.797 183.475L125.964 183.559Z" fill="#363332"/>
<path fill-rule="evenodd" clip-rule="evenodd" d="M112.642 175.682L112.893 175.599L118.591 172.331L113.48 169.314H113.228C113.145 169.314 113.061 169.314 113.061 169.314L107.363 172.582L112.474 175.599L112.642 175.682Z" fill="#363332"/>
<path fill-rule="evenodd" clip-rule="evenodd" d="M149.844 188.753L150.095 188.67L155.877 185.402L150.766 182.385H150.514C150.43 182.385 150.347 182.385 150.347 182.385L144.565 185.653L149.676 188.67L149.844 188.753Z" fill="#363332"/>
<path fill-rule="evenodd" clip-rule="evenodd" d="M119.345 179.62L119.596 179.536L125.294 176.269L120.183 173.252H120.015C119.931 173.252 119.848 173.252 119.848 173.252L114.15 176.52L119.261 179.536L119.345 179.62Z" fill="#363332"/>
<path fill-rule="evenodd" clip-rule="evenodd" d="M139.203 191.351L139.454 191.267L145.235 187.999L140.124 184.983H139.873C139.789 184.983 139.705 184.983 139.705 184.983L133.924 188.25L139.035 191.267L139.203 191.351Z" fill="#363332"/>
<path fill-rule="evenodd" clip-rule="evenodd" d="M145.822 195.289L146.073 195.205L151.855 191.937L146.744 188.921H146.492C146.409 188.921 146.325 188.921 146.325 188.921L140.543 192.189L145.654 195.205L145.822 195.289Z" fill="#363332"/>
<path fill-rule="evenodd" clip-rule="evenodd" d="M156.463 192.691L156.715 192.608L162.496 189.34L157.385 186.323H157.134C157.05 186.323 156.966 186.323 156.966 186.323L151.185 189.591L156.296 192.608L156.463 192.691Z" fill="#363332"/>
<path fill-rule="evenodd" clip-rule="evenodd" d="M163.166 196.629L163.418 196.546L169.199 193.278L164.088 190.261H163.92C163.837 190.261 163.753 190.261 163.753 190.261L157.971 193.529L163.082 196.546L163.166 196.629Z" fill="#363332"/>
<path fill-rule="evenodd" clip-rule="evenodd" d="M152.525 199.227L152.776 199.143L158.558 195.875L153.447 192.859H153.195C153.112 192.859 153.028 192.859 153.028 192.859L147.246 196.127L152.357 199.143L152.525 199.227Z" fill="#363332"/>
<path fill-rule="evenodd" clip-rule="evenodd" d="M142.135 166.466L142.387 166.382L148.168 163.03L143.057 160.014H142.889C142.806 160.014 142.722 160.014 142.722 160.014L136.94 163.365L142.051 166.382L142.135 166.466Z" fill="#363332"/>
<path fill-rule="evenodd" clip-rule="evenodd" d="M165.01 215.398L165.261 215.314L171.042 212.047C165.847 209.03 160.653 206.014 155.542 202.914H155.29C155.206 202.914 155.123 202.914 155.123 202.914L149.341 206.181L150.933 207.103C155.542 209.868 160.234 212.549 164.842 215.23L165.01 215.398Z" fill="#363332"/>
<path fill-rule="evenodd" clip-rule="evenodd" d="M188.051 202.327L188.303 202.243L194.084 198.891L188.889 195.875H188.638C188.554 195.875 188.47 195.875 188.47 195.875L182.689 199.227L187.884 202.243L188.051 202.327Z" fill="#363332"/>
<path fill-rule="evenodd" clip-rule="evenodd" d="M195.76 197.886L196.011 197.803L201.876 194.451L196.765 191.435H196.514C196.43 191.435 196.346 191.435 196.346 191.435L190.481 194.786L195.676 197.803L195.76 197.886Z" fill="#363332"/>
<path fill-rule="evenodd" clip-rule="evenodd" d="M172.718 211.041L172.969 210.957L178.751 207.689L166.937 200.735C166.853 200.735 166.769 200.735 166.685 200.735C166.602 200.735 166.518 200.735 166.518 200.735L160.736 204.003C163.418 205.595 166.183 207.187 168.864 208.779L172.55 210.957L172.718 211.041Z" fill="#363332"/>
<path fill-rule="evenodd" clip-rule="evenodd" d="M180.343 206.684L180.594 206.6L186.376 203.332L177.662 198.221L177.41 198.137H177.159L171.378 201.489L180.175 206.684H180.343Z" fill="#363332"/>
<path fill-rule="evenodd" clip-rule="evenodd" d="M188.973 193.948L189.224 193.864L195.09 190.513L189.978 187.497H189.727C189.643 187.497 189.56 187.497 189.56 187.497L183.694 190.848L188.805 193.864L188.973 193.948Z" fill="#363332"/>
<path fill-rule="evenodd" clip-rule="evenodd" d="M182.27 190.01L182.521 189.926L188.386 186.575L183.275 183.558H183.024C182.94 183.558 182.856 183.558 182.856 183.558L176.991 186.91L182.102 189.926L182.27 190.01Z" fill="#363332"/>
<path fill-rule="evenodd" clip-rule="evenodd" d="M162.161 178.28L162.412 178.196L168.277 174.844L163.166 171.828H162.999C162.915 171.828 162.831 171.828 162.831 171.828L157.05 175.18L162.161 178.196V178.28Z" fill="#363332"/>
<path fill-rule="evenodd" clip-rule="evenodd" d="M168.864 182.134L169.115 182.05L174.98 178.699L169.869 175.682H169.618C169.534 175.682 169.45 175.682 169.45 175.682L163.585 179.034L168.696 182.05L168.864 182.134Z" fill="#363332"/>
<path fill-rule="evenodd" clip-rule="evenodd" d="M175.567 186.072L175.818 185.988L181.683 182.637L176.572 179.62H176.321C176.237 179.62 176.153 179.62 176.153 179.62L170.288 182.972L175.399 185.988L175.567 186.072Z" fill="#363332"/>
<path fill-rule="evenodd" clip-rule="evenodd" d="M143.644 211.711L143.895 211.628L149.676 208.36C130.405 197.048 111.134 185.653 91.9461 174.258L85.1593 170.236H84.9079C84.8241 170.236 84.7403 170.236 84.7403 170.236L79.0427 173.504L98.733 185.15C113.647 193.948 128.562 202.83 143.476 211.628L143.644 211.711Z" fill="#363332"/>
<path fill-rule="evenodd" clip-rule="evenodd" d="M50.6386 156.663L50.8062 156.579L56.5038 153.311L51.2251 150.211L51.0575 150.127L50.8062 150.211L45.1086 153.479L50.471 156.579L50.6386 156.663Z" fill="#363332"/>
<path fill-rule="evenodd" clip-rule="evenodd" d="M57.4253 160.684L57.6767 160.6L63.3743 157.333L58.0956 154.232C58.0118 154.232 57.928 154.232 57.8443 154.232H57.6767L51.9791 157.5L57.2577 160.6L57.4253 160.684Z" fill="#363332"/>
<path fill-rule="evenodd" clip-rule="evenodd" d="M64.2123 164.706L64.4637 164.622L70.1613 161.355L64.9664 158.254C64.8826 158.254 64.7988 158.254 64.715 158.254H64.5475C64.5475 158.254 60.6094 160.517 58.8498 161.522L64.0447 164.622L64.2123 164.706Z" fill="#363332"/>
<path fill-rule="evenodd" clip-rule="evenodd" d="M157.301 219.755L157.553 219.671L163.334 216.403L158.139 213.387C158.055 213.387 157.971 213.387 157.888 213.387C157.804 213.387 157.72 213.387 157.72 213.387L151.939 216.655L157.134 219.671L157.301 219.755Z" fill="#363332"/>
<path fill-rule="evenodd" clip-rule="evenodd" d="M70.9991 168.728L71.2505 168.644L76.9481 165.376L71.7532 162.36C71.6694 162.36 71.5856 162.36 71.5018 162.36H71.3342L65.6366 165.628L70.8315 168.644L70.9991 168.728Z" fill="#363332"/>
<path fill-rule="evenodd" clip-rule="evenodd" d="M150.514 215.733L150.765 215.649L156.547 212.382L151.436 209.365H151.184C151.101 209.365 151.017 209.365 151.017 209.365L145.235 212.633L150.43 215.649L150.514 215.733Z" fill="#363332"/>
<path fill-rule="evenodd" clip-rule="evenodd" d="M155.541 174.342L155.793 174.258L161.574 170.906L156.463 167.89H156.296C156.212 167.89 156.128 167.89 156.128 167.89L150.347 171.241L155.458 174.258L155.541 174.342Z" fill="#363332"/>
<path fill-rule="evenodd" clip-rule="evenodd" d="M77.6184 172.666L77.8697 172.582L83.5673 169.315L78.4563 166.298C78.3725 166.298 78.2887 166.298 78.2049 166.298H78.0373L72.3397 169.566L77.4508 172.582L77.6184 172.666Z" fill="#363332"/>
<path fill-rule="evenodd" clip-rule="evenodd" d="M81.2212 165.963L81.4726 165.879L87.1702 162.611L72.6748 154.065C72.591 154.065 72.5072 154.065 72.4235 154.065H72.2559L66.5583 157.333C68.9881 158.757 78.6238 164.455 81.0536 165.879L81.2212 165.963Z" fill="#363332"/>
<path fill-rule="evenodd" clip-rule="evenodd" d="M94.7949 174.006L95.0463 173.923L100.744 170.655L95.6328 167.638H95.3815C95.2977 167.638 95.2139 167.638 95.2139 167.638L89.5163 170.906L94.6274 173.923L94.7949 174.006Z" fill="#363332"/>
<path fill-rule="evenodd" clip-rule="evenodd" d="M127.891 193.529L128.143 193.445L133.924 190.177L128.897 187.161H128.645C128.562 187.161 128.478 187.161 128.478 187.161L122.696 190.429L127.724 193.445L127.891 193.529Z" fill="#363332"/>
<path fill-rule="evenodd" clip-rule="evenodd" d="M88.1756 170.069L88.427 169.985L94.1246 166.717L88.9297 163.701H88.7621H88.5945L82.8969 166.968L88.008 169.985L88.1756 170.069Z" fill="#363332"/>
<path fill-rule="evenodd" clip-rule="evenodd" d="M65.7205 147.948H65.8881L71.5857 144.681L66.3908 141.58L66.1395 141.497L65.9719 141.58L60.2743 144.848L65.5529 147.948H65.7205Z" fill="#363332"/>
<path fill-rule="evenodd" clip-rule="evenodd" d="M73.2613 143.591L73.5127 143.508L79.2103 140.24L74.0154 137.14C73.9317 137.14 73.8479 137.14 73.7641 137.14H73.5965L67.8989 140.407L73.1776 143.508L73.2613 143.591Z" fill="#363332"/>
<path fill-rule="evenodd" clip-rule="evenodd" d="M64.9663 156.327L65.2177 156.243L70.9153 152.976L65.7204 149.875C65.6366 149.875 65.5528 149.875 65.469 149.875H65.3015L59.6039 153.143L64.8825 156.243L64.9663 156.327Z" fill="#363332"/>
<path fill-rule="evenodd" clip-rule="evenodd" d="M121.272 189.591L121.523 189.507L127.305 186.24L122.278 183.223H122.11C122.026 183.223 121.942 183.223 121.942 183.223L116.161 186.491L121.188 189.507L121.272 189.591Z" fill="#363332"/>
<path fill-rule="evenodd" clip-rule="evenodd" d="M148.838 170.404L149.09 170.32L154.871 166.969L149.76 163.952H149.593C149.509 163.952 149.425 163.952 149.425 163.952L143.644 167.304L148.755 170.32L148.838 170.404Z" fill="#363332"/>
<path fill-rule="evenodd" clip-rule="evenodd" d="M101.414 177.945L101.666 177.861L107.363 174.593L102.252 171.577H102.085C102.001 171.577 101.917 171.577 101.917 171.577L96.2194 174.844L101.33 177.861L101.414 177.945Z" fill="#363332"/>
<path fill-rule="evenodd" clip-rule="evenodd" d="M108.033 181.799L108.285 181.715L113.982 178.447L108.871 175.431H108.62C108.536 175.431 108.452 175.431 108.452 175.431L102.755 178.698L107.782 181.715L108.033 181.799Z" fill="#363332"/>
<path fill-rule="evenodd" clip-rule="evenodd" d="M114.653 185.737L114.904 185.653L120.686 182.385L115.658 179.369H115.491C115.407 179.369 115.323 179.369 115.323 179.369L109.625 182.637L114.653 185.653V185.737Z" fill="#363332"/>
<path fill-rule="evenodd" clip-rule="evenodd" d="M128.729 158.589L128.981 158.506L134.762 155.154L129.651 152.138H129.483C129.4 152.138 129.316 152.138 129.316 152.138L123.534 155.489L128.645 158.506L128.729 158.589Z" fill="#363332"/>
<path fill-rule="evenodd" clip-rule="evenodd" d="M122.11 154.651L122.361 154.567L128.143 151.216L123.032 148.199H122.864C122.78 148.199 122.696 148.199 122.696 148.199L116.915 151.551L122.026 154.567L122.11 154.651Z" fill="#363332"/>
<path fill-rule="evenodd" clip-rule="evenodd" d="M135.432 162.528L135.684 162.444L141.465 159.092L136.354 156.076H136.186C136.103 156.076 136.019 156.076 136.019 156.076L130.237 159.427L135.348 162.444L135.432 162.528Z" fill="#363332"/>
<path fill-rule="evenodd" clip-rule="evenodd" d="M115.323 150.713L115.574 150.63L121.356 147.278L116.245 144.262H115.993C115.91 144.262 115.826 144.262 115.826 144.262L110.044 147.613L115.155 150.63L115.323 150.713Z" fill="#363332"/>
<path fill-rule="evenodd" clip-rule="evenodd" d="M101.917 142.837L102.168 142.754C102.168 142.754 106.023 140.491 107.95 139.402L102.755 136.386H102.503C102.42 136.386 102.336 136.386 102.336 136.386L96.5545 139.737L101.749 142.754L101.917 142.837Z" fill="#363332"/>
<path fill-rule="evenodd" clip-rule="evenodd" d="M108.62 146.775L108.871 146.692L114.653 143.34L109.458 140.324H109.29C109.206 140.324 109.123 140.324 109.123 140.324C106.777 141.664 105.604 142.335 103.341 143.675L108.536 146.692L108.62 146.775Z" fill="#363332"/>
<path fill-rule="evenodd" clip-rule="evenodd" d="M95.1301 138.899L95.3815 138.815L101.163 135.464L95.968 132.448H95.7166C95.6328 132.448 95.5491 132.448 95.5491 132.448L89.7677 135.799L94.9625 138.815L95.1301 138.899Z" fill="#363332"/>
<path fill-rule="evenodd" clip-rule="evenodd" d="M88.4271 134.877L88.6784 134.794L94.4598 131.442L89.2649 128.426H89.0135C88.9298 128.426 88.846 128.426 88.846 128.426C86.4999 129.766 85.3269 130.437 83.0646 131.777L88.2595 134.877H88.4271Z" fill="#363332"/>
<path fill-rule="evenodd" clip-rule="evenodd" d="M80.8023 139.318L81.0537 139.234L86.8351 135.883L81.6402 132.783C81.5564 132.783 81.4726 132.783 81.3888 132.783C81.3051 132.783 81.2213 132.783 81.2213 132.783L75.4399 136.05L80.6347 139.151L80.8023 139.318Z" fill="#363332"/>
<path fill-rule="evenodd" clip-rule="evenodd" d="M127.808 166.214L128.059 166.131L133.84 162.779L128.729 159.763H128.478C128.394 159.763 128.31 159.763 128.31 159.763L122.613 163.114L127.724 166.131L127.808 166.214Z" fill="#666462"/>
<path fill-rule="evenodd" clip-rule="evenodd" d="M121.188 162.276L121.44 162.192L127.137 158.841L122.026 155.824H121.859C121.775 155.824 121.691 155.824 121.691 155.824L115.993 159.176L121.105 162.192L121.188 162.276Z" fill="#666462"/>
<path fill-rule="evenodd" clip-rule="evenodd" d="M114.485 158.338L114.737 158.254L120.434 154.903L115.323 151.886H115.072C114.988 151.886 114.904 151.886 114.904 151.886L109.207 155.238L114.318 158.254L114.485 158.338Z" fill="#666462"/>
<path fill-rule="evenodd" clip-rule="evenodd" d="M134.511 170.152L134.762 170.069L140.543 166.717L135.432 163.701H135.265C135.181 163.701 135.097 163.701 135.097 163.701L129.316 167.052L134.427 170.069L134.511 170.152Z" fill="#666462"/>
<path fill-rule="evenodd" clip-rule="evenodd" d="M141.214 174.09L141.465 174.006L147.246 170.655L142.135 167.638H141.968C141.884 167.638 141.8 167.638 141.8 167.638L136.019 170.99L141.13 174.006L141.214 174.09Z" fill="#666462"/>
<path fill-rule="evenodd" clip-rule="evenodd" d="M85.9135 159.176L86.1648 159.092L91.8624 155.824L81.3889 149.624L88.9298 145.267L80.8024 140.491C80.7186 140.491 80.6348 140.491 80.551 140.491C80.4672 140.491 80.3834 140.491 80.3834 140.491L67.1449 148.116L85.7459 159.092L85.9135 159.176Z" fill="#666462"/>
<path fill-rule="evenodd" clip-rule="evenodd" d="M107.782 154.4L108.034 154.316L113.731 150.965L108.62 147.948H108.369C108.285 147.948 108.201 147.948 108.201 147.948L102.504 151.3L107.615 154.316L107.782 154.4Z" fill="#666462"/>
<path fill-rule="evenodd" clip-rule="evenodd" d="M99.4033 167.136L99.6546 167.052L105.352 163.784L100.241 160.768H99.9898C99.906 160.768 99.8222 160.768 99.8222 160.768L94.1246 164.036L99.2357 167.052L99.4033 167.136Z" fill="#666462"/>
<path fill-rule="evenodd" clip-rule="evenodd" d="M100.912 150.378L101.163 150.295L106.861 146.943L88.3433 136.051H88.092C88.0082 136.051 87.9244 136.051 87.9244 136.051L82.2268 139.318C86.7514 142 100.744 150.211 100.744 150.211L100.912 150.378Z" fill="#666462"/>
<path fill-rule="evenodd" clip-rule="evenodd" d="M92.7002 163.198L92.9516 163.114L98.6492 159.846L93.4543 156.83H93.2867H93.1192L87.4216 160.098L92.5326 163.198H92.7002Z" fill="#666462"/>
<path fill-rule="evenodd" clip-rule="evenodd" d="M181.265 197.635L181.516 197.551L187.297 194.2L182.186 191.183H181.935C181.851 191.183 181.767 191.183 181.767 191.183L175.986 194.451L181.097 197.467L181.265 197.635Z" fill="#666462"/>
<path fill-rule="evenodd" clip-rule="evenodd" d="M159.228 202.411L159.48 202.327L165.261 199.059L160.15 196.043H159.898C159.815 196.043 159.731 196.043 159.731 196.043L153.949 199.311C155.96 200.484 157.05 201.07 159.061 202.327L159.228 202.411Z" fill="#666462"/>
<path fill-rule="evenodd" clip-rule="evenodd" d="M169.869 199.813L170.121 199.73L175.902 196.462L170.791 193.446H170.54C170.456 193.446 170.372 193.446 170.372 193.446L164.591 196.713L169.702 199.73L169.869 199.813Z" fill="#666462"/>
<path fill-rule="evenodd" clip-rule="evenodd" d="M147.833 204.589L148.084 204.505L153.866 201.238L148.755 198.221H148.503C148.419 198.221 148.336 198.221 148.336 198.221L142.554 201.489L147.665 204.505L147.833 204.589Z" fill="#666462"/>
<path fill-rule="evenodd" clip-rule="evenodd" d="M141.13 200.651L141.381 200.567L147.163 197.3L142.052 194.283H141.8C141.716 194.283 141.633 194.283 141.633 194.283L135.851 197.551L140.962 200.567L141.13 200.651Z" fill="#666462"/>
<path fill-rule="evenodd" clip-rule="evenodd" d="M147.833 178.028L148.084 177.945L153.866 174.593L148.755 171.577H148.587C148.503 171.577 148.419 171.577 148.419 171.577L142.638 174.928L147.749 177.945L147.833 178.028Z" fill="#666462"/>
<path fill-rule="evenodd" clip-rule="evenodd" d="M161.155 185.821L161.407 185.737L167.188 182.469L162.077 179.453H161.826C161.742 179.453 161.658 179.453 161.658 179.453L155.877 182.804L160.988 185.821H161.155Z" fill="#666462"/>
<path fill-rule="evenodd" clip-rule="evenodd" d="M154.536 181.882L154.787 181.799L160.569 178.447L155.458 175.431H155.206C155.123 175.431 155.039 175.431 155.039 175.431L149.257 178.782L154.368 181.799L154.536 181.882Z" fill="#666462"/>
<path fill-rule="evenodd" clip-rule="evenodd" d="M174.561 193.697L174.813 193.613L180.594 190.345L175.483 187.329H175.232C175.148 187.329 175.064 187.329 175.064 187.329L169.283 190.68L174.394 193.697H174.561Z" fill="#666462"/>
<path fill-rule="evenodd" clip-rule="evenodd" d="M167.858 189.759L168.11 189.675L173.891 186.407L168.78 183.391H168.529C168.445 183.391 168.361 183.391 168.361 183.391L162.58 186.658L167.691 189.675L167.858 189.759Z" fill="#666462"/>
<path fill-rule="evenodd" clip-rule="evenodd" d="M96.5544 156.662L96.8058 156.579L102.503 153.227L97.3923 150.211C97.3085 150.211 97.2247 150.211 97.1409 150.211H96.9734L91.2758 153.478L96.3869 156.495L96.5544 156.662Z" fill="#666462"/>
<path fill-rule="evenodd" clip-rule="evenodd" d="M116.58 168.476L116.831 168.393L122.529 165.041L117.418 162.025H117.166C117.083 162.025 116.999 162.025 116.999 162.025L111.301 165.376L116.412 168.393L116.58 168.476Z" fill="#666462"/>
<path fill-rule="evenodd" clip-rule="evenodd" d="M123.199 172.331L123.451 172.247L129.148 168.979L124.037 165.963H123.869C123.786 165.963 123.702 165.963 123.702 165.963L118.004 169.314L123.115 172.331H123.199Z" fill="#666462"/>
<path fill-rule="evenodd" clip-rule="evenodd" d="M109.877 164.539L110.128 164.455L115.826 161.103L110.715 158.087H110.463C110.38 158.087 110.296 158.087 110.296 158.087L104.598 161.438L109.709 164.455L109.877 164.539Z" fill="#666462"/>
<path fill-rule="evenodd" clip-rule="evenodd" d="M129.902 176.269L130.154 176.185L135.851 172.917L130.74 169.901H130.489C130.405 169.901 130.321 169.901 130.321 169.901L124.624 173.169L129.735 176.185L129.902 176.269Z" fill="#666462"/>
<path fill-rule="evenodd" clip-rule="evenodd" d="M136.522 180.207L136.773 180.123L142.554 176.856L137.443 173.839H137.276C137.192 173.839 137.108 173.839 137.108 173.839L131.327 177.107L136.438 180.123L136.522 180.207Z" fill="#666462"/>
<path fill-rule="evenodd" clip-rule="evenodd" d="M103.257 160.601L103.509 160.517L109.206 157.165L104.095 154.149H103.844C103.76 154.149 103.676 154.149 103.676 154.149L97.9788 157.5L103.09 160.517L103.257 160.601Z" fill="#666462"/>
<path fill-rule="evenodd" clip-rule="evenodd" d="M58.1795 151.551L58.4308 151.468L64.1285 148.2L58.8498 145.1H58.6822L58.4308 145.183C56.1685 146.524 54.9955 147.194 52.7332 148.451L58.0119 151.551H58.1795Z" fill="#666462"/>
<path fill-rule="evenodd" clip-rule="evenodd" d="M134.511 196.713L134.762 196.629L140.543 193.362L135.432 190.345H135.265C135.181 190.345 135.097 190.345 135.097 190.345L129.316 193.613L134.343 196.629L134.511 196.713Z" fill="#666462"/>
<path fill-rule="evenodd" clip-rule="evenodd" d="M106.023 171.074L106.274 170.99L111.972 167.722L106.86 164.706H106.609C106.525 164.706 106.442 164.706 106.442 164.706L100.744 167.974L105.855 170.99L106.023 171.074Z" fill="#666462"/>
<path fill-rule="evenodd" clip-rule="evenodd" d="M89.8514 152.641L90.1028 152.557L95.8004 149.289L90.6055 146.273C90.5217 146.273 90.4379 146.273 90.3541 146.273H90.1865L84.4889 149.54L89.6838 152.557L89.8514 152.641Z" fill="#666462"/>
<path fill-rule="evenodd" clip-rule="evenodd" d="M143.141 184.145L143.392 184.061L149.174 180.793L144.063 177.777H143.895C143.811 177.777 143.727 177.777 143.727 177.777L137.946 181.045L143.057 184.061L143.141 184.145Z" fill="#666462"/>
<path fill-rule="evenodd" clip-rule="evenodd" d="M132.584 186.742L132.835 186.658L138.616 183.391L133.505 180.374H133.338C133.254 180.374 133.17 180.374 133.17 180.374L127.389 183.642L132.416 186.658L132.584 186.742Z" fill="#666462"/>
<path fill-rule="evenodd" clip-rule="evenodd" d="M125.964 182.804L126.216 182.721L131.997 179.453L126.886 176.437H126.635C126.551 176.437 126.467 176.437 126.467 176.437L120.769 179.704C122.613 180.793 125.797 182.721 125.797 182.721L125.964 182.804Z" fill="#666462"/>
<path fill-rule="evenodd" clip-rule="evenodd" d="M112.642 175.012L112.893 174.928L118.591 171.66L113.48 168.644H113.228C113.145 168.644 113.061 168.644 113.061 168.644L107.363 171.912L112.474 174.928L112.642 175.012Z" fill="#666462"/>
<path fill-rule="evenodd" clip-rule="evenodd" d="M149.844 187.999H150.095L155.877 184.731L150.766 181.715H150.514C150.43 181.715 150.347 181.715 150.347 181.715L144.565 184.983L149.676 187.999H149.844Z" fill="#666462"/>
<path fill-rule="evenodd" clip-rule="evenodd" d="M119.345 178.866L119.596 178.782L125.294 175.515L120.183 172.498H120.015C119.931 172.498 119.848 172.498 119.848 172.498L114.15 175.766L119.261 178.782L119.345 178.866Z" fill="#666462"/>
<path fill-rule="evenodd" clip-rule="evenodd" d="M139.203 190.596L139.454 190.513L145.235 187.245L140.124 184.229H139.873C139.789 184.229 139.705 184.229 139.705 184.229L133.924 187.496L139.035 190.513L139.203 190.596Z" fill="#666462"/>
<path fill-rule="evenodd" clip-rule="evenodd" d="M145.822 194.535L146.073 194.451L151.855 191.183L146.744 188.167H146.492C146.409 188.167 146.325 188.167 146.325 188.167L140.543 191.434L145.654 194.451L145.822 194.535Z" fill="#666462"/>
<path fill-rule="evenodd" clip-rule="evenodd" d="M156.463 191.937L156.715 191.853L162.496 188.586L157.385 185.569H157.134C157.05 185.569 156.966 185.569 156.966 185.569L151.185 188.837L156.296 191.853L156.463 191.937Z" fill="#666462"/>
<path fill-rule="evenodd" clip-rule="evenodd" d="M163.166 195.875L163.418 195.791L169.199 192.524L164.088 189.507H163.92C163.837 189.507 163.753 189.507 163.753 189.507L157.971 192.775L163.082 195.791L163.166 195.875Z" fill="#666462"/>
<path fill-rule="evenodd" clip-rule="evenodd" d="M152.525 198.472L152.776 198.389L158.558 195.121L153.447 192.104H153.195C153.112 192.104 153.028 192.104 153.028 192.104L147.246 195.372L152.357 198.389L152.525 198.472Z" fill="#666462"/>
<path fill-rule="evenodd" clip-rule="evenodd" d="M142.135 165.711L142.387 165.627L148.168 162.276L143.057 159.26H142.889C142.806 159.26 142.722 159.26 142.722 159.26L136.94 162.611L142.051 165.627L142.135 165.711Z" fill="#666462"/>
<path fill-rule="evenodd" clip-rule="evenodd" d="M165.01 214.644L165.261 214.56L171.042 211.292C165.847 208.276 160.653 205.26 155.542 202.159H155.29C155.206 202.159 155.123 202.159 155.123 202.159L149.341 205.427L150.933 206.433C155.542 209.198 160.234 211.879 164.842 214.56L165.01 214.644Z" fill="#666462"/>
<path fill-rule="evenodd" clip-rule="evenodd" d="M188.051 201.573L188.303 201.489L194.084 198.137L188.889 195.121H188.638C188.554 195.121 188.47 195.121 188.47 195.121L182.689 198.473L187.884 201.489L188.051 201.573Z" fill="#666462"/>
<path fill-rule="evenodd" clip-rule="evenodd" d="M195.76 197.216L196.011 197.132L201.876 193.781L196.765 190.764H196.514C196.43 190.764 196.346 190.764 196.346 190.764L190.481 194.116L195.676 197.132L195.76 197.216Z" fill="#666462"/>
<path fill-rule="evenodd" clip-rule="evenodd" d="M172.718 210.287L172.969 210.203L178.751 206.935L166.937 199.981C166.853 199.981 166.769 199.981 166.685 199.981C166.602 199.981 166.518 199.981 166.518 199.981L160.736 203.249C163.418 204.841 166.183 206.433 168.864 208.025L172.55 210.203L172.718 210.287Z" fill="#666462"/>
<path fill-rule="evenodd" clip-rule="evenodd" d="M180.343 205.93H180.594L186.376 202.578L177.662 197.467L177.41 197.383L177.159 197.467L171.378 200.735L180.175 205.93H180.343Z" fill="#666462"/>
<path fill-rule="evenodd" clip-rule="evenodd" d="M188.973 193.278L189.224 193.194L195.09 189.843L189.978 186.826H189.727C189.643 186.826 189.56 186.826 189.56 186.826L183.694 190.178L188.805 193.194L188.973 193.278Z" fill="#666462"/>
<path fill-rule="evenodd" clip-rule="evenodd" d="M182.27 189.34L182.521 189.256L188.386 185.905L183.275 182.888H183.024C182.94 182.888 182.856 182.888 182.856 182.888L176.991 186.24L182.102 189.256L182.27 189.34Z" fill="#666462"/>
<path fill-rule="evenodd" clip-rule="evenodd" d="M162.161 177.526L162.412 177.442L168.277 174.09L163.166 171.074H162.999C162.915 171.074 162.831 171.074 162.831 171.074L157.05 174.426L162.161 177.442V177.526Z" fill="#666462"/>
<path fill-rule="evenodd" clip-rule="evenodd" d="M168.864 181.464L169.115 181.38L174.98 178.028L169.869 175.012H169.618C169.534 175.012 169.45 175.012 169.45 175.012L163.585 178.363L168.696 181.38L168.864 181.464Z" fill="#666462"/>
<path fill-rule="evenodd" clip-rule="evenodd" d="M175.567 185.402L175.818 185.318L181.683 181.966L176.572 178.95H176.321C176.237 178.95 176.153 178.95 176.153 178.95L170.288 182.301L175.399 185.318L175.567 185.402Z" fill="#666462"/>
<path fill-rule="evenodd" clip-rule="evenodd" d="M143.644 210.957L143.895 210.873L149.676 207.606C130.405 196.294 111.134 184.899 91.9461 173.504L85.1593 169.482H84.9079C84.8241 169.482 84.7403 169.482 84.7403 169.482L79.0427 172.75L98.733 184.396C113.647 193.194 128.562 202.076 143.476 210.873L143.644 210.957Z" fill="#666462"/>
<path fill-rule="evenodd" clip-rule="evenodd" d="M50.6386 155.908H50.8062L56.5038 152.64L51.2251 149.457H51.0575H50.8062L45.1086 152.724L50.471 155.908H50.6386Z" fill="#666462"/>
<path fill-rule="evenodd" clip-rule="evenodd" d="M57.4253 160.014L57.6767 159.93L63.3743 156.662L58.0956 153.562C58.0118 153.562 57.928 153.562 57.8443 153.562H57.6767L51.9791 156.83L57.2577 159.93L57.4253 160.014Z" fill="#666462"/>
<path fill-rule="evenodd" clip-rule="evenodd" d="M64.2123 164.036L64.4637 163.952L70.1613 160.684L64.9664 157.584C64.8826 157.584 64.7988 157.584 64.715 157.584H64.5475C64.5475 157.584 60.6094 159.846 58.8498 160.852L64.0447 163.952L64.2123 164.036Z" fill="#666462"/>
<path fill-rule="evenodd" clip-rule="evenodd" d="M157.301 219.001L157.553 218.917L163.334 215.649L158.139 212.633C158.055 212.633 157.971 212.633 157.888 212.633C157.804 212.633 157.72 212.633 157.72 212.633L151.939 215.901L157.134 218.917L157.301 219.001Z" fill="#666462"/>
<path fill-rule="evenodd" clip-rule="evenodd" d="M70.9991 167.974L71.2505 167.89L76.9481 164.622L71.7532 161.606C71.6694 161.606 71.5856 161.606 71.5018 161.606H71.3342L65.6366 164.873L70.8315 167.89L70.9991 167.974Z" fill="#666462"/>
<path fill-rule="evenodd" clip-rule="evenodd" d="M150.514 214.979L150.765 214.895L156.547 211.628L151.436 208.611H151.184C151.101 208.611 151.017 208.611 151.017 208.611L145.235 211.879L150.43 214.895L150.514 214.979Z" fill="#666462"/>
<path fill-rule="evenodd" clip-rule="evenodd" d="M155.541 173.587L155.793 173.504L161.574 170.152L156.463 167.136H156.296C156.212 167.136 156.128 167.136 156.128 167.136L150.347 170.487L155.458 173.504L155.541 173.587Z" fill="#666462"/>
<path fill-rule="evenodd" clip-rule="evenodd" d="M77.6184 171.912L77.8697 171.828L83.5673 168.56L78.4563 165.544C78.3725 165.544 78.2887 165.544 78.2049 165.544H78.0373L72.3397 168.812L77.4508 171.828L77.6184 171.912Z" fill="#666462"/>
<path fill-rule="evenodd" clip-rule="evenodd" d="M81.2212 165.209L81.4726 165.125L87.1702 161.857L72.6748 153.311C72.591 153.311 72.5072 153.311 72.4235 153.311H72.2559L66.5583 156.579C68.9881 158.003 78.6238 163.701 81.0536 165.125L81.2212 165.209Z" fill="#666462"/>
<path fill-rule="evenodd" clip-rule="evenodd" d="M94.7949 173.252L95.0463 173.169L100.744 169.901L95.6328 166.885H95.3815C95.2977 166.885 95.2139 166.885 95.2139 166.885L89.5163 170.152L94.6274 173.169L94.7949 173.252Z" fill="#666462"/>
<path fill-rule="evenodd" clip-rule="evenodd" d="M127.891 192.775L128.143 192.692L133.924 189.424L128.897 186.407H128.645C128.562 186.407 128.478 186.407 128.478 186.407L122.696 189.675L127.724 192.692L127.891 192.775Z" fill="#666462"/>
<path fill-rule="evenodd" clip-rule="evenodd" d="M88.1756 169.315H88.427L94.1246 165.963L88.9297 162.947H88.7621H88.5945L82.8969 166.298L88.008 169.315H88.1756Z" fill="#666462"/>
<path fill-rule="evenodd" clip-rule="evenodd" d="M65.7205 147.278L65.8881 147.194L71.5857 143.927L66.3908 140.826H66.1395H65.9719L60.2743 144.094L65.5529 147.194L65.7205 147.278Z" fill="#666462"/>
<path fill-rule="evenodd" clip-rule="evenodd" d="M73.2613 142.921L73.5127 142.838L79.2103 139.57L74.0154 136.47C73.9317 136.47 73.8479 136.47 73.7641 136.47H73.5965L67.8989 139.737L73.1776 142.838L73.2613 142.921Z" fill="#666462"/>
<path fill-rule="evenodd" clip-rule="evenodd" d="M64.9663 155.657L65.2177 155.573L70.9153 152.305L65.7204 149.205C65.6366 149.205 65.5528 149.205 65.469 149.205H65.3015L59.6039 152.473L64.8825 155.573L64.9663 155.657Z" fill="#666462"/>
<path fill-rule="evenodd" clip-rule="evenodd" d="M121.272 188.921L121.523 188.837L127.305 185.57L122.278 182.553H122.11C122.026 182.553 121.942 182.553 121.942 182.553L116.161 185.821L121.188 188.837L121.272 188.921Z" fill="#666462"/>
<path fill-rule="evenodd" clip-rule="evenodd" d="M148.838 169.649L149.09 169.566L154.871 166.214L149.76 163.198H149.593C149.509 163.198 149.425 163.198 149.425 163.198L143.644 166.549L148.755 169.566L148.838 169.649Z" fill="#666462"/>
<path fill-rule="evenodd" clip-rule="evenodd" d="M101.414 177.191L101.666 177.107L107.363 173.839L102.252 170.823H102.085C102.001 170.823 101.917 170.823 101.917 170.823L96.2194 174.091L101.33 177.107L101.414 177.191Z" fill="#666462"/>
<path fill-rule="evenodd" clip-rule="evenodd" d="M108.033 181.129L108.285 181.045L113.982 177.777L108.871 174.761H108.62C108.536 174.761 108.452 174.761 108.452 174.761L102.755 178.028L107.782 181.045L108.033 181.129Z" fill="#666462"/>
<path fill-rule="evenodd" clip-rule="evenodd" d="M114.653 184.983L114.904 184.899L120.686 181.631L115.658 178.615H115.491C115.407 178.615 115.323 178.615 115.323 178.615L109.625 181.883L114.653 184.899V184.983Z" fill="#666462"/>
<path fill-rule="evenodd" clip-rule="evenodd" d="M128.729 157.919L128.981 157.835L134.762 154.484L129.651 151.467H129.483C129.4 151.467 129.316 151.467 129.316 151.467L123.534 154.819L128.645 157.835L128.729 157.919Z" fill="#666462"/>
<path fill-rule="evenodd" clip-rule="evenodd" d="M122.11 153.981L122.361 153.897L128.143 150.546L123.032 147.529H122.864C122.78 147.529 122.696 147.529 122.696 147.529L116.915 150.881L122.026 153.897L122.11 153.981Z" fill="#666462"/>
<path fill-rule="evenodd" clip-rule="evenodd" d="M135.432 161.857L135.684 161.774L141.465 158.422L136.354 155.406H136.186C136.103 155.406 136.019 155.406 136.019 155.406L130.237 158.757L135.348 161.774L135.432 161.857Z" fill="#666462"/>
<path fill-rule="evenodd" clip-rule="evenodd" d="M115.323 150.043L115.574 149.959L121.356 146.608L116.245 143.592H115.993C115.91 143.592 115.826 143.592 115.826 143.592L110.044 146.943L115.155 149.959L115.323 150.043Z" fill="#666462"/>
<path fill-rule="evenodd" clip-rule="evenodd" d="M101.917 142.083L102.168 141.999C102.168 141.999 106.023 139.737 107.95 138.648L102.755 135.632H102.503C102.42 135.632 102.336 135.632 102.336 135.632L96.5545 138.983L101.749 141.999L101.917 142.083Z" fill="#666462"/>
<path fill-rule="evenodd" clip-rule="evenodd" d="M108.62 146.105L108.871 146.021L114.653 142.67L109.458 139.653H109.29C109.206 139.653 109.123 139.653 109.123 139.653C106.777 140.994 105.604 141.664 103.341 143.005L108.536 146.021L108.62 146.105Z" fill="#666462"/>
<path fill-rule="evenodd" clip-rule="evenodd" d="M95.1301 138.145L95.3815 138.061L101.163 134.71L95.968 131.693H95.7166C95.6328 131.693 95.5491 131.693 95.5491 131.693L89.7677 135.045L94.9625 138.061L95.1301 138.145Z" fill="#666462"/>
<path fill-rule="evenodd" clip-rule="evenodd" d="M88.4271 134.207L88.6784 134.124L94.4598 130.772L89.2649 127.756H89.0135C88.9298 127.756 88.846 127.756 88.846 127.756C86.4999 129.096 85.3269 129.767 83.0646 131.107L88.2595 134.124L88.4271 134.207Z" fill="#666462"/>
<path fill-rule="evenodd" clip-rule="evenodd" d="M80.8023 138.564L81.0537 138.48L86.8351 135.128L81.6402 132.028C81.5564 132.028 81.4726 132.028 81.3888 132.028C81.3051 132.028 81.2213 132.028 81.2213 132.028L75.4399 135.296L80.6347 138.396L80.8023 138.564Z" fill="#666462"/>
<path fill-rule="evenodd" clip-rule="evenodd" d="M96.1356 120.214C97.7275 119.293 100.325 119.293 101.917 120.214C103.509 121.136 103.509 122.644 101.917 123.566C100.325 124.487 97.7275 124.487 96.1356 123.566C94.5436 122.644 94.5436 121.136 96.1356 120.214Z" fill="#666462"/>
<path fill-rule="evenodd" clip-rule="evenodd" d="M96.8896 3.66472C96.8896 1.82137 97.8951 0.815918 99.4033 0.815918C100.157 0.815918 100.995 1.06728 101.917 1.57001C100.995 1.06728 100.157 0.815918 99.4033 0.815918C97.8951 0.815918 96.8896 1.82137 96.8896 3.66472ZM202.044 60.3894L101.917 1.57001L202.044 60.3894ZM96.1355 107.311C96.1355 107.311 96.1355 107.227 96.1355 107.311C96.1355 107.227 96.1355 107.311 96.1355 107.311Z" fill="#CAC9C5"/>
<path fill-rule="evenodd" clip-rule="evenodd" d="M142.806 139.737L147.246 133.872L103.928 108.568L104.682 13.8031L196.681 67.5951L202.044 60.4731L101.917 1.65375C100.995 1.15102 100.157 0.899658 99.4033 0.899658C97.8951 0.899658 96.8896 1.90511 96.8896 3.74846L96.1355 107.311C96.1355 109.992 98.2302 113.427 100.828 115.103C100.911 115.187 100.995 115.187 101.079 115.271L142.806 139.737Z" fill="#666562"/>
<path fill-rule="evenodd" clip-rule="evenodd" d="M147.246 133.788L196.765 67.5953L104.682 13.8032L104.012 108.568L147.246 133.788Z" fill="#4D4A49"/>
</svg>
