<svg width="45" height="96" viewBox="0 0 45 96" fill="none" xmlns="http://www.w3.org/2000/svg">
<path fill-rule="evenodd" clip-rule="evenodd" d="M24.6246 95.8754L22.0238 95.0102C22.0238 95.0102 22.3414 82.1053 17.5827 81.1792C14.4113 77.5974 18.0914 -70.7229 29.5105 80.6847C29.5105 80.6847 25.5767 82.5985 24.8789 85.8719C24.1172 89.083 24.6246 95.8754 24.6246 95.8754Z" fill="white"/>
<path fill-rule="evenodd" clip-rule="evenodd" d="M26.0209 83.4022C26.0209 83.4022 48.7972 68.8291 43.4671 38.51C38.3289 16.4667 26.2113 9.24207 24.879 6.46315C23.4201 4.4872 22.0239 1.02979 22.0239 1.02979L22.976 62.3452C22.976 62.4074 21.0091 81.1171 26.0216 83.4028" fill="white"/>
<path fill-rule="evenodd" clip-rule="evenodd" d="M26.0209 83.4022C26.0209 83.4022 48.7972 68.8291 43.4671 38.51C38.3289 16.4667 26.2113 9.24207 24.879 6.46315C23.4201 4.4872 22.0239 1.02979 22.0239 1.02979L22.976 62.3452C22.976 62.4074 21.0091 81.1171 26.0216 83.4028" fill="white"/>
<path fill-rule="evenodd" clip-rule="evenodd" d="M20.6922 84.2043C20.6922 84.2043 -0.688568 70.0019 0.580526 44.9943C1.78568 19.9861 16.8849 7.69815 19.8032 5.47529C21.7069 3.49934 21.7701 2.75794 21.8973 0.781982C23.2297 3.5609 22.976 42.3392 23.1657 46.9081C23.7363 64.5063 22.151 80.8706 20.6922 84.2043Z" fill="#2A674A"/>
</svg>
