<svg width="84" height="89" viewBox="0 0 84 89" fill="none" xmlns="http://www.w3.org/2000/svg">
<path d="M42.0725 83.168C41.0902 83.168 40.0915 82.8933 39.2402 82.3781L30.2195 76.7795C28.877 75.9895 29.5319 75.6976 29.9739 75.5602C31.7748 74.9076 32.1349 74.7702 34.0504 73.6196C34.2633 73.4994 34.5252 73.5509 34.7217 73.6883L41.6468 77.9988C41.8924 78.1534 42.2526 78.1534 42.4818 77.9988L69.4785 61.6497C69.724 61.4952 69.8877 61.186 69.8877 60.8769V28.1615C69.8877 27.8352 69.724 27.5433 69.4621 27.3716L42.4818 11.0396C42.2362 10.8851 41.8924 10.8851 41.6468 11.0396L14.6829 27.3887C14.4209 27.5433 14.2572 27.8524 14.2572 28.1787V60.8597C14.2572 61.1689 14.4209 61.478 14.6829 61.6154L22.0828 66.0976C26.1102 68.1928 28.566 65.737 28.566 63.2297V30.9608C28.566 30.4971 28.9098 30.1537 29.3518 30.1537H32.7571C33.1827 30.1537 33.5429 30.5143 33.5429 30.9608V63.2469C33.5429 68.8626 30.6124 72.074 25.5536 72.074C23.9819 72.074 22.7541 72.074 19.3324 70.288L12.2599 66.0118C10.5081 64.947 9.42761 62.9721 9.42761 60.8426V28.1615C9.42761 26.0492 10.5081 24.0571 12.2599 22.9923L39.2238 6.64323C40.9265 5.62999 43.2021 5.62999 44.8884 6.64323L71.8851 23.0095C73.6368 24.0743 74.7173 26.0492 74.7173 28.1787V60.8597C74.7173 62.9721 73.6368 64.947 71.8851 66.029L44.8884 82.3781C44.0534 82.8933 43.0711 83.168 42.0725 83.168ZM63.863 50.9507C63.863 44.8369 59.9175 43.2055 51.6335 42.0548C43.2349 40.887 42.3999 40.286 42.3999 38.2423C42.3999 36.5422 43.1203 34.2753 49.3251 34.2753C54.8587 34.2753 56.9051 35.5289 57.7564 39.4617C57.8219 39.8223 58.1493 40.1142 58.5095 40.1142H62.013C62.2259 40.1142 62.4387 40.0284 62.586 39.8566C62.7334 39.6849 62.7989 39.4617 62.7989 39.2212C62.2586 32.4549 57.9693 29.3122 49.3251 29.3122C41.6141 29.3122 37.03 32.7125 37.03 38.4312C37.03 44.6309 41.5977 46.3482 48.9813 47.1038C57.8219 48.014 58.5095 49.3707 58.5095 51.1911C58.5095 54.351 56.0865 55.7077 50.3892 55.7077C43.2349 55.7077 41.6796 53.8186 41.1557 50.092C41.0902 49.697 40.7791 49.4051 40.3862 49.4051H36.8991C36.457 49.4051 36.1296 49.7657 36.1296 50.2122C36.1296 54.9864 38.6017 60.6708 50.422 60.6708C58.9515 60.6537 63.863 57.1159 63.863 50.9507Z" fill="white"/>
</svg>
