<svg width="458" height="504" viewBox="0 0 458 504" fill="none" xmlns="http://www.w3.org/2000/svg">
<path d="M229 261.43C296.469 261.43 351.35 189.825 351.35 122.36C351.35 54.899 296.471 0 229 0C161.529 0 106.64 54.898 106.64 122.36C106.652 189.817 161.531 261.43 229 261.43Z" fill="black"/>
<path d="M320.85 262.68C297.116 280.762 267.51 291.52 235.44 291.52H222.557C190.479 291.52 160.866 280.758 137.139 262.68C59.651 275.207 0.479004 342.375 0.479004 423.39C0.479004 467.898 102.789 503.992 228.999 503.992C355.209 503.992 457.519 467.898 457.519 423.39C457.519 342.37 398.339 275.2 320.849 262.68H320.85Z" fill="black"/>
</svg>
