<svg width="563" height="543" viewBox="0 0 563 543" fill="none" xmlns="http://www.w3.org/2000/svg">
<path d="M299.805 125.792L287.52 122.055L234.113 120.483L222.068 123.771L223.64 153.12L250.889 170.506L277.319 169.976L293.935 154.836L297.624 139.825L299.805 125.792Z" fill="#F8AE9D"/>
<path d="M145.615 172.991C149.48 165.02 153.185 158.621 156.489 153.569C162.975 143.614 172.896 136.393 184.363 133.281L227.922 121.477C227.922 121.477 230.184 165.004 260.143 165.004C290.102 165.004 295.94 124.187 295.94 124.187L346.347 144.299C348.079 144.972 359.771 149.014 373.371 178.187C386.33 205.965 391.992 220.191 391.992 220.191L340.06 235.186L336.821 281.889L337.927 308.561L180.305 308.208L181.187 277.719L180.53 230.968L178.557 234.16L126.097 213.118C126.097 213.118 132.849 199.261 145.615 172.991V172.991Z" fill="#666AF6"/>
<path d="M265.233 141.32C252.449 141.084 237.926 116.148 237.926 116.148L237.092 52.0941C236.424 33.6451 247.9 17.9261 268.585 17.8401L270.505 17.9261C289.757 18.8451 305.003 32.7891 305.518 49.9721C306.005 65.9641 306.297 83.6311 305.671 92.1661C304.363 109.833 284.207 106.851 284.207 106.851C284.165 106.851 284.262 115.751 284.207 120.949C284.054 132.623 270.366 141.717 265.233 141.32Z" fill="#F8AE9D"/>
<path d="M243.478 55.6081C243.126 55.4401 229.356 50.8421 229.049 64.4431C228.741 78.0441 243.156 75.5361 243.185 75.1451C243.214 74.7551 243.478 55.6081 243.478 55.6081V55.6081ZM387.516 221.49L408.638 263.879C410.998 268.615 412.103 273.878 411.846 279.163C411.044 295.618 397.46 308.561 380.989 308.561L319.92 307.601L317.767 277.415L363.86 266.301L346.394 233.278L387.516 221.49V221.49ZM128.774 214.193C128.774 214.193 115.671 253.118 101.381 288.498C101.092 289.203 100.772 290.519 100.515 291.24C97.2913 300.013 106.994 308.561 116.794 308.561L199.374 308.417V281.569L148.004 270.663L166.608 229.349L128.774 214.193Z" fill="#F8AE9D"/>
<path d="M294.289 280.334C294.273 280.43 292.396 279.837 289.269 279.644C286.158 279.436 281.747 279.789 277.353 281.665C272.958 283.542 269.638 286.477 267.65 288.866C265.629 291.256 264.763 293.036 264.683 292.972C264.651 292.956 264.843 292.507 265.276 291.737C265.709 290.967 266.399 289.877 267.377 288.642C269.334 286.156 272.67 283.109 277.16 281.2C281.651 279.292 286.158 278.971 289.301 279.292C290.873 279.436 292.14 279.692 292.99 279.917C293.84 280.125 294.305 280.302 294.289 280.334V280.334ZM291.466 273.839C291.434 273.967 289.526 273.021 286.238 272.924C282.966 272.78 278.363 273.774 274.065 276.373C269.767 278.987 266.543 282.291 264.266 284.664C263.175 285.819 262.277 286.781 261.571 287.519C260.93 288.193 260.577 288.561 260.545 288.529C260.513 288.513 260.834 288.096 261.427 287.391C262.262 286.385 263.117 285.396 263.993 284.424C266.222 281.986 269.43 278.602 273.808 275.939C278.187 273.293 282.918 272.331 286.254 272.572C287.922 272.668 289.253 272.972 290.135 273.277C290.584 273.405 290.905 273.566 291.13 273.662C291.354 273.758 291.466 273.822 291.466 273.839Z" fill="#EB996E"/>
<path d="M182.005 276.645H193.858C193.858 276.645 220.609 266.974 226.11 267.904C231.066 268.738 249.205 280.783 252.765 283.172C253.166 283.445 253.455 283.814 253.631 284.263C253.98 285.207 253.949 286.249 253.546 287.17C253.142 288.091 252.396 288.82 251.466 289.203L251.097 289.363L251.258 289.908C251.466 290.582 251.563 291.336 251.53 292.074C251.402 294.624 247.97 295.393 246.671 293.196L247.361 294.415C247.633 294.912 247.778 295.474 247.745 296.035L247.681 297.142C247.647 297.741 247.432 298.315 247.066 298.79C246.7 299.265 246.199 299.619 245.628 299.804C245.086 299.984 244.503 300.003 243.951 299.858C243.399 299.712 242.9 299.41 242.517 298.986C240.224 296.452 235.252 291.384 231.884 290.823C228.901 290.325 223.913 290.261 220.898 290.277C220.151 290.278 219.422 290.506 218.806 290.93C218.191 291.353 217.718 291.953 217.45 292.651C219.438 292.795 233.343 300.044 238.267 302.643C239.791 303.445 240.929 304.888 241.122 306.604C241.298 308.144 240.528 309.764 237.481 309.042C230.938 307.518 219.182 302.113 219.182 302.113C219.182 302.113 213.119 300.381 209.19 303.156C203.657 307.053 201.123 308.48 196.376 306.909C191.628 305.337 188.132 303.076 188.132 303.076L178.782 302.145C178.75 302.145 169.913 280.045 182.005 276.645V276.645Z" fill="#F8AE9D"/>
<path d="M217.337 281.168C217.354 281.264 219.23 280.671 222.357 280.478C225.469 280.27 229.879 280.623 234.274 282.499C238.668 284.376 241.988 287.311 243.977 289.7C245.998 292.09 246.864 293.87 246.944 293.806C246.976 293.79 246.783 293.341 246.35 292.571C245.731 291.486 245.029 290.452 244.249 289.476C242.293 286.99 238.957 283.943 234.466 282.034C229.975 280.126 225.469 279.805 222.325 280.126C221.081 280.234 219.848 280.443 218.637 280.751C217.787 280.976 217.321 281.136 217.337 281.168V281.168ZM220.16 274.673C220.192 274.801 222.1 273.855 225.388 273.758C228.66 273.614 233.263 274.608 237.561 277.207C241.859 279.821 245.083 283.125 247.36 285.498C248.451 286.653 249.349 287.615 250.055 288.353C250.696 289.027 251.049 289.395 251.081 289.363C251.113 289.347 250.793 288.93 250.199 288.225C249.365 287.218 248.509 286.229 247.633 285.258C245.404 282.82 242.196 279.436 237.818 276.774C233.439 274.127 228.708 273.165 225.372 273.406C223.704 273.502 222.373 273.806 221.491 274.111C221.042 274.24 220.721 274.4 220.497 274.496C220.272 274.592 220.16 274.657 220.16 274.673V274.673Z" fill="#EB996E"/>
<path d="M198.044 309.315H322.483C324.185 309.317 325.822 308.66 327.05 307.482C328.279 306.304 329.004 304.697 329.074 302.996L332.811 217.352C332.972 213.599 329.973 210.456 326.22 210.456H194.547C190.794 210.456 187.795 213.583 187.94 217.336L191.436 302.996C191.58 306.524 194.499 309.315 198.044 309.315Z" fill="#2E2628"/>
<path d="M247.81 261.47C247.808 263.142 248.136 264.797 248.775 266.342C249.414 267.886 250.351 269.29 251.533 270.472C252.715 271.654 254.119 272.591 255.663 273.23C257.208 273.869 258.863 274.197 260.535 274.196C262.206 274.198 263.862 273.869 265.406 273.23C266.951 272.591 268.354 271.654 269.536 270.472C270.718 269.29 271.656 267.887 272.295 266.342C272.934 264.797 273.262 263.142 273.261 261.47C273.262 259.799 272.934 258.143 272.295 256.599C271.655 255.054 270.718 253.651 269.536 252.469C268.354 251.287 266.951 250.35 265.406 249.711C263.861 249.072 262.206 248.744 260.535 248.745C253.499 248.745 247.81 254.464 247.81 261.47Z" fill="white"/>
<path d="M248.291 80.3879H237.064V128.502H248.291V80.3879Z" fill="#F8AE9D"/>
<path d="M243.884 37.3969C245.907 40.0069 249.475 40.5819 252.414 41.0989C256.364 41.7919 258.319 43.2369 260.37 47.1159C261.668 49.5929 262.967 52.3069 265.291 53.6489C267.18 54.7449 267.112 51.9509 267.411 49.7879C267.44 49.5963 267.478 49.4063 267.527 49.2189C267.984 47.4919 269.823 47.7859 270.362 49.4899C270.854 51.0239 271.907 52.3219 273.247 53.0439C273.465 53.1619 273.698 53.2649 273.93 53.2209C274.244 53.1769 274.49 52.8819 274.695 52.6169C275.125 52.0609 275.552 51.3539 275.993 50.6069C277.442 48.1499 280.185 49.0279 281.804 51.3779C282.815 52.8379 284.018 54.3419 285.672 54.6809C286.205 54.7989 286.875 54.7109 287.121 54.1949C287.436 53.5599 286.944 52.9259 287.026 52.2769C287.094 51.6729 287.354 51.4069 287.641 50.8909C288.767 48.8879 291.345 48.8159 292.93 50.4799C294.033 51.6366 295.183 52.7479 296.376 53.8109C296.881 54.2539 297.619 54.6959 298.125 54.2539C298.399 54.0179 298.467 53.6189 298.522 53.2359C298.809 51.3629 299.082 49.4899 299.369 47.6169C299.533 46.5699 300.094 45.1979 301.051 45.4639C301.515 45.5969 301.789 46.0829 302.048 46.5259C302.363 47.0859 307.981 53.4719 308.09 52.9849C308.965 49.3569 310.756 46.0539 311.631 42.4259C317.29 19.0799 292.179 0.305943 273 0.202943C268.736 0.173943 264.84 0.242943 260.698 1.23094C256.282 2.29294 251.621 3.97894 247.616 6.35294C241.998 9.67094 237.746 15.7029 238.84 22.8999" fill="#2E2628"/>
<path d="M253.971 29.5051C256.793 32.6041 257.54 36.9631 257.803 41.0811C258.19 47.2911 257.665 53.7431 254.704 59.2561C253.861 60.8261 253.238 68.5921 251.938 68.1631C251.523 68.0291 251.592 62.0061 250.499 58.7601C248.811 53.7301 241.037 51.8121 237.537 54.9911C231.949 60.0481 235.227 66.1911 237.081 70.0141C238.188 72.3211 239.944 74.9101 240.249 77.3511C240.622 80.4771 240.733 91.8651 238.63 94.5211C236.873 96.7471 235.006 85.9901 233.415 83.8701C221.643 68.0831 210.355 27.8821 230.455 19.1631C233.512 17.8351 242.946 17.1511 245.81 18.8411" fill="#2E2628"/>
<path d="M444.633 169.397C444.81 163.844 446.071 158.166 448.29 152.859C477.185 162.995 468.718 151.09 451.236 147.058C455.939 139.187 463.074 132.802 472.41 129.848C483.717 126.275 497.117 134.412 505.761 146.422C492.165 152.063 495.058 170.017 509.151 151.745C511.973 156.804 513.908 162.252 514.564 167.682C516.215 181.054 510.056 194.178 490.124 200.015C457.999 209.477 443.923 190.322 444.633 169.397V169.397ZM464.832 162.57C456.348 162.818 468.222 172.316 474.576 167.717C478.552 164.817 473.333 162.322 464.832 162.57Z" fill="#666AF6"/>
<path d="M497.88 305.981C499.282 197.715 472.428 129.866 472.428 129.866" stroke="#666AF6" stroke-width="2.5" stroke-miterlimit="10"/>
<path d="M505.063 176.436C509.501 195.168 514.453 184.732 509.093 172.422C517.808 164.957 530.587 161.066 544.768 165.223C556.217 168.584 561.648 176.684 562.536 185.811C544.201 184.926 539.728 196.636 562.624 190.144C561.541 210.556 539.977 233.108 513.104 219.223C493.385 209.035 493.935 189.455 505.063 176.436ZM531.634 201.411C541.361 204.012 541.84 196.848 533.338 195.858C527.286 195.15 521.907 198.812 531.634 201.411Z" fill="#666AF6"/>
<path d="M506.258 271.615C501.803 203.641 540.709 169.415 540.709 169.415" stroke="#666AF6" stroke-width="2.5" stroke-miterlimit="10"/>
<path d="M428.51 216.437C419.067 204.126 418.836 183.98 426.095 177.966C432.965 172.271 441.733 171.581 450.182 173.916C448.034 186.722 458.505 192.346 456.003 176.038C475.687 184.829 490.4 208.654 468.499 220.434C451.814 229.384 439.886 227.174 432.131 220.364C460.387 218.56 445.921 210.936 428.51 216.437ZM435.893 195.725C427.657 198.148 428.812 200.73 437.935 201.42C447.04 202.11 446.525 192.63 435.893 195.725Z" fill="#666AF6"/>
<path d="M482.19 270.995C484.906 203.64 431.729 179.019 431.729 179.019" stroke="#666AF6" stroke-width="2.5" stroke-miterlimit="10"/>
<path d="M536.04 263.59H452.161L463.714 296.216C466.672 304.565 474.607 310.168 483.504 310.168H504.714C513.613 310.168 521.547 304.581 524.504 296.216L525.96 296.731L524.504 296.216L536.04 263.59V263.59Z" fill="#666AF6" stroke="#E1E4E5" stroke-width="4"/>
<path d="M547.886 262.447V257.417H441.357V262.447H547.886Z" fill="#E1E4E5" stroke="#E1E4E5" stroke-width="4"/>
<path d="M28.6191 250.698L33.1941 307.604H64.8531L69.4381 250.698H28.6191Z" fill="#666AF6"/>
<path d="M26.001 245.567H72.541V253.861H26.001V245.567ZM29.19 245.567H69.353L67.008 236.242H31.545L29.19 245.567Z" fill="#2E2628"/>
<path d="M39.9629 279.68C39.9626 280.902 40.2032 282.113 40.6709 283.242C41.1386 284.372 41.8242 285.398 42.6886 286.262C43.5529 287.127 44.5791 287.812 45.7086 288.28C46.838 288.748 48.0485 288.988 49.2709 288.988C50.4933 288.988 51.7038 288.748 52.8332 288.28C53.9626 287.812 54.9888 287.127 55.8532 286.262C56.7176 285.398 57.4032 284.372 57.8709 283.242C58.3386 282.113 58.5792 280.902 58.5789 279.68C58.5793 278.458 58.3388 277.247 57.8712 276.118C57.4035 274.988 56.7179 273.962 55.8535 273.097C54.9891 272.233 53.9629 271.547 52.8334 271.08C51.7039 270.612 50.4933 270.372 49.2709 270.372C48.0485 270.372 46.838 270.612 45.7086 271.08C44.5791 271.548 43.5529 272.233 42.6886 273.098C41.8242 273.962 41.1386 274.988 40.6709 276.118C40.2032 277.247 39.9626 278.458 39.9629 279.68V279.68Z" fill="white"/>
<path d="M281.015 308H0.5C10.369 489.185 190.509 542.969 281.015 542.969V308Z" fill="#972F66"/>
<path d="M280.485 308H561C551.131 489.185 370.462 544.51 280.485 542.969V308Z" fill="#972F66"/>
</svg>
