<svg width="600" height="561" viewBox="0 0 600 561" fill="none" xmlns="http://www.w3.org/2000/svg">
<path d="M512.41 270.34C500.398 270.34 480.801 276.363 464.5 286.465C460.524 288.938 455.52 289.051 451.426 286.774C447.352 284.496 444.825 280.188 444.825 275.516V193.098C444.825 171.778 427.524 154.477 406.204 154.477H303.804C299.171 154.477 294.901 151.984 292.605 147.969C290.304 143.953 290.343 139.012 292.718 135.016C303.32 117.172 309.656 95.2928 309.656 86.8948C309.656 38.8868 270.765 -0.00317383 222.758 -0.00317383C174.754 -0.00317383 135.863 38.8878 135.863 86.8948C135.863 95.2932 142.195 117.172 152.797 135.016C155.172 139.012 155.211 143.953 152.934 147.993C150.633 152.008 146.348 154.481 141.715 154.481H39.3046C17.9846 154.481 0.683594 171.782 0.683594 193.102V521.382C0.683594 542.702 17.9846 560.003 39.3046 560.003H141.705C146.337 560.003 150.607 557.511 152.904 553.495C155.204 549.476 155.165 544.511 152.79 540.534C142.188 522.671 135.856 500.811 135.856 492.413C135.856 444.409 174.747 405.515 222.754 405.515C270.758 405.515 309.652 444.406 309.652 492.413C309.652 500.812 303.32 522.671 292.718 540.534C290.343 544.53 290.304 549.476 292.601 553.491C294.875 557.527 299.16 559.999 303.796 559.999H406.196C427.516 559.999 444.817 542.698 444.817 521.378V438.96C444.817 434.288 447.348 429.96 451.442 427.702C455.516 425.425 460.516 425.538 464.497 427.991C480.794 438.112 500.392 444.136 512.403 444.136C560.407 444.136 599.301 405.245 599.301 357.238C599.297 309.234 560.406 270.343 512.403 270.343L512.41 270.34Z" fill="black"/>
</svg>
