<svg width="67" height="67" viewBox="0 0 67 67" fill="none" xmlns="http://www.w3.org/2000/svg">
<g clip-path="url(#clip0_44_257)">
<path d="M39.9906 0.41875L42.5031 1.04688L44.5969 1.675L46.0625 2.72187L47.3188 3.55938L48.3656 4.60625L48.9937 5.65313L49.4125 6.28125L49.6219 7.11875L49.8312 7.74688V8.375V8.79375V23.6594L49.6219 25.3344L49.2031 26.8L48.575 28.0562L48.1562 29.3125L47.3188 30.15L46.4813 30.7781L45.4344 31.4062L44.3875 31.825L43.55 32.0344L42.7125 32.2437L41.875 32.4531H41.2469H24.4969L22.6125 32.6625L20.9375 33.0813L19.4719 33.7094L18.425 34.5469L17.5875 35.3844L16.75 36.4312L16.1219 37.4781L15.7031 38.525L15.4938 39.5719L15.2844 40.4094L15.075 41.2469V41.875V50.4594H8.79375H8.16563L7.32812 50.25L6.49062 49.8312L5.44375 49.4125L4.81562 48.1562L3.76875 47.1094L2.72187 45.8531L1.88437 44.1781L1.04688 42.0844L0.628125 39.7812L0.209375 36.85L0 33.5L0.209375 30.15L0.628125 27.2188L1.25625 24.7063L2.09375 22.6125L3.14062 20.9375L4.1875 19.6812L5.44375 18.8438L6.7 18.2156L7.74688 17.7969L8.79375 17.5875L9.63125 17.3781H10.2594H10.6781H10.8875H33.7094V15.075H17.3781V7.32812V6.28125L17.5875 5.23438L17.7969 4.39687L18.2156 3.55938L18.8438 2.93125L19.6812 2.30313L20.9375 1.88437L22.1938 1.46562L23.6594 1.04688L25.125 0.628125L26.8 0.41875L28.6844 0.209375L30.7781 0L33.5 0L37.0594 0.209375L39.9906 0.41875ZM22.4031 6.07188L21.775 6.90937L21.5656 7.95625L21.775 9.00313L22.4031 10.05L23.2406 10.6781L24.2875 10.8875L25.3344 10.6781L26.1719 10.05L27.2188 9.2125L27.4281 8.16563L27.2188 6.90937L26.5906 6.07188L25.7531 5.44375L24.7063 5.23438L23.6594 5.44375L22.4031 6.07188ZM58.8344 16.9594L59.6719 17.1687L60.5094 17.5875L61.5562 18.0063L62.6031 18.8438L63.65 19.8906L64.6969 21.1469L65.5344 22.8219L66.3719 24.9156L67 27.4281L67.4188 30.3594L67.6281 33.7094L67.4188 37.0594L67 39.9906L66.3719 42.2938L65.5344 44.1781L64.4875 45.8531L63.4406 47.1094L61.7656 48.1562L60.7188 48.7844L59.6719 49.2031L58.625 49.4125L57.7875 49.6219H57.1594H56.7406H33.7094V51.925H50.0406V59.6719V60.7188L49.8312 61.7656L49.6219 62.6031L49.2031 63.4406L48.575 64.0688L47.7375 64.6969L46.6906 65.325L45.4344 65.7437L43.9688 66.1625L42.2938 66.5812L40.4094 66.7906L38.525 67L36.4312 67.2094H34.1281L30.5688 67L27.6375 66.5812L25.125 65.9531L23.0312 65.325L21.3562 64.4875L20.1 63.65L19.0531 62.6031L18.425 61.5562L17.7969 60.7188L17.5875 59.8813L17.3781 59.2531V58.625V58.2062V43.3406L17.5875 41.4562L18.0063 39.9906L18.6344 38.7344L19.2625 37.6875L20.1 36.85L20.9375 36.2219L21.9844 35.5938L23.0312 35.175L23.8687 34.9656L24.7063 34.7563L25.3344 34.5469H26.3813H42.7125L44.5969 34.3375L46.2719 33.9188L47.7375 33.2906L48.7844 32.4531L49.6219 31.6156L50.4594 30.5688L51.0875 29.5219L51.5063 28.475L51.7156 27.4281L51.925 26.5906L52.1344 25.7531V25.125V16.9594H57.9969H58.4156H58.8344ZM40.8281 56.7406L40.2 57.5781L39.9906 58.625L40.2 59.6719L40.8281 60.5094L41.6656 61.1375L42.7125 61.3469L43.7594 61.1375L44.5969 60.5094L45.225 59.6719L45.4344 58.625L45.225 57.5781L44.5969 56.7406L43.9688 56.1125L42.9219 55.9031L41.875 56.1125L40.8281 56.7406Z" fill="white"/>
</g>
<defs>
<clipPath id="clip0_44_257">
<rect width="67" height="67" fill="white"/>
</clipPath>
</defs>
</svg>
