<svg width="88" height="90" viewBox="0 0 88 90" fill="none" xmlns="http://www.w3.org/2000/svg">
<path d="M68.4983 32.9224C67.6965 32.6435 66.8775 32.382 66.0757 32.1379C66.2122 31.5626 66.3316 31.0048 66.451 30.4295C68.2936 21.2947 67.0823 13.9555 62.9877 11.5323C59.0468 9.21372 52.6149 11.6195 46.0978 17.4246C45.4495 17.9999 44.8183 18.5926 44.2211 19.1853C43.8117 18.7844 43.4022 18.3834 42.9757 17.9999C36.1515 11.8112 29.3102 9.21372 25.2157 11.6369C21.2918 13.9729 20.1146 20.8763 21.7695 29.523C21.9401 30.3772 22.1107 31.2314 22.3325 32.0856C21.3771 32.3645 20.4217 32.6609 19.5516 32.9921C11.5331 35.8337 5.78373 40.3139 5.78373 44.9336C5.78373 49.7102 11.9085 54.5043 20.217 57.4155C20.8994 57.6422 21.5647 57.8688 22.2642 58.078C22.0424 59.0019 21.8377 59.9084 21.6671 60.8324C20.0975 69.3396 21.3259 76.0861 25.2498 78.3873C29.2932 80.7756 36.1003 78.3175 42.7369 72.3904C43.2658 71.9197 43.7946 71.4316 44.3064 70.9086C44.9718 71.571 45.6542 72.1986 46.3537 72.8087C52.7685 78.4396 59.115 80.7233 63.0219 78.4221C67.0652 76.0338 68.3959 68.7818 66.6728 59.9607C66.5363 59.2809 66.3828 58.601 66.2292 57.8862C66.7069 57.7468 67.1676 57.5899 67.6453 57.4504C76.295 54.5217 82.5732 49.7974 82.5732 44.9336C82.5562 40.2965 76.6532 35.7988 68.4983 32.9224ZM48.1963 19.9175C53.775 14.9491 58.9785 13.0141 61.3499 14.4087C63.892 15.8905 64.8644 21.9048 63.2607 29.7845C63.1583 30.3075 63.056 30.813 62.9195 31.3186C59.5927 30.5515 56.2147 29.9937 52.8197 29.6973C50.8748 26.8558 48.7422 24.1188 46.439 21.5562C47.0361 20.9983 47.5991 20.4579 48.1963 19.9175ZM30.8627 52.883C31.6305 54.2079 32.4152 55.5502 33.2341 56.8577C30.8969 56.5962 28.5766 56.2127 26.2734 55.7071C26.9388 53.4931 27.7577 51.2094 28.7131 48.8909C29.3955 50.2332 30.1121 51.5755 30.8627 52.883ZM26.3076 34.4565C28.4743 33.9684 30.7604 33.5674 33.1488 33.2536C32.347 34.5262 31.5793 35.8337 30.8457 37.1411C30.1121 38.4486 29.3955 39.7735 28.7131 41.1333C27.7577 38.8496 26.9729 36.6182 26.3076 34.4565ZM30.4192 45.0208C31.4087 42.9114 32.4835 40.8369 33.6265 38.7973C34.7696 36.7576 35.998 34.7877 37.2775 32.8352C39.5295 32.6609 41.8156 32.5737 44.1529 32.5737C46.4902 32.5737 48.7934 32.6609 51.0283 32.8352C52.3078 34.7703 53.5191 36.7402 54.6793 38.7624C55.8394 40.7846 56.9142 42.8591 57.9378 44.9511C56.9312 47.0604 55.8564 49.1524 54.6963 51.2094C53.5533 53.2491 52.342 55.219 51.0624 57.1889C48.8275 57.3632 46.5073 57.433 44.1529 57.433C41.7985 57.433 39.5124 57.3632 37.3116 57.2238C36.015 55.2713 34.7696 53.284 33.6265 51.2443C32.4835 49.2047 31.4257 47.1302 30.4192 45.0208ZM57.4942 52.8656C58.262 51.5232 58.9785 50.146 59.678 48.7689C60.6334 50.9828 61.4693 53.2491 62.22 55.5502C59.8998 56.0906 57.5454 56.4916 55.174 56.7705C55.9929 55.4979 56.7436 54.173 57.4942 52.8656ZM59.6609 41.1333C58.9614 39.7909 58.2449 38.4312 57.4942 37.1237C56.7606 35.8162 55.9929 34.5262 55.2081 33.271C57.6307 33.5848 59.9339 33.9858 62.0835 34.4913C61.384 36.7576 60.5822 38.9542 59.6609 41.1333ZM44.2041 23.9096C45.7737 25.6529 47.2579 27.5008 48.6398 29.401C45.6713 29.2615 42.6857 29.2615 39.7172 29.401C41.1844 27.4136 42.7028 25.5657 44.2041 23.9096ZM26.8023 14.5133C29.3273 13.0141 34.9061 15.1583 40.809 20.4928C41.1844 20.824 41.5597 21.1901 41.9521 21.5736C39.6319 24.1362 37.4822 26.8558 35.5203 29.7147C32.1252 30.0285 28.7643 30.5515 25.4375 31.3011C25.2498 30.5167 25.0792 29.7147 24.9086 28.9303C23.5096 21.5039 24.4309 15.9079 26.8023 14.5133ZM23.1343 54.9052C22.5031 54.7134 21.8889 54.5217 21.2747 54.3125C18.0844 53.284 14.4505 51.6627 11.8232 49.5359C10.3048 48.4551 9.28115 46.8164 9.00818 44.9511C9.00818 42.1444 13.751 38.5532 20.5923 36.13C21.4453 35.8162 22.3154 35.5548 23.1855 35.2933C24.2091 38.6229 25.4375 41.8829 26.8535 45.0382C25.4034 48.211 24.175 51.5232 23.1343 54.9052ZM40.6214 69.9149C38.1476 72.2335 35.2814 74.0639 32.1593 75.3191C30.4874 76.1384 28.5766 76.2082 26.8706 75.5108C24.4821 74.0988 23.4926 68.6946 24.8404 61.4077C25.011 60.5535 25.1816 59.6992 25.4034 58.845C28.7643 59.5772 32.1593 60.0828 35.5885 60.3443C37.5675 63.2032 39.7342 65.9576 42.0715 68.5203C41.5768 69.0258 41.0991 69.4791 40.6214 69.9149ZM44.2894 66.1843C42.7539 64.4933 41.2355 62.628 39.7513 60.6232C41.1844 60.6929 42.6686 60.7104 44.17 60.7104C45.7225 60.7104 47.2238 60.6755 48.7251 60.6058C47.3432 62.5582 45.859 64.4061 44.2894 66.1843ZM63.892 70.7865C63.7555 72.6519 62.8513 74.3951 61.4182 75.5806C59.0297 76.9926 53.9457 75.1447 48.4692 70.3333C47.838 69.7754 47.2067 69.1827 46.5584 68.5726C48.8445 65.9751 50.9601 63.2381 52.8879 60.3617C56.3171 60.0653 59.7462 59.5423 63.1072 58.7579C63.2607 59.3855 63.3972 60.013 63.5166 60.6232C64.2502 63.9354 64.3696 67.3871 63.892 70.7865ZM66.6216 54.3125C66.1951 54.452 65.7857 54.5914 65.3421 54.7135C64.2843 51.3663 63.0048 48.1064 61.5205 44.9336C62.9536 41.8131 64.182 38.5881 65.1886 35.2933C65.9733 35.5199 66.724 35.7639 67.4405 36.008C74.4354 38.466 79.3317 42.1095 79.3317 44.8988C79.3317 47.9146 74.0942 51.7847 66.6216 54.3125ZM44.17 52.0114C47.9574 52.0114 51.0454 48.8734 51.0454 44.9859C51.0454 41.1158 47.9745 37.9605 44.17 37.9605C40.3655 37.9605 37.2946 41.0984 37.2946 44.9859C37.2946 48.8734 40.3825 52.0114 44.17 52.0114Z" fill="white"/>
</svg>
